<svg id="Capa_1" data-name="Capa 1" xmlns="http://www.w3.org/2000/svg" viewBox="0 0 1646.7 1523.47"><defs><style>.cls-1,.cls-10,.cls-11,.cls-12,.cls-13,.cls-14,.cls-15,.cls-16,.cls-17,.cls-18,.cls-19,.cls-2,.cls-3,.cls-4,.cls-5,.cls-6,.cls-7,.cls-8,.cls-9{fill-rule:evenodd;}.cls-2{fill:#f60;}.cls-3{fill:#ff9932;}.cls-4{fill:#32cc32;}.cls-5{fill:#009932;}.cls-6{fill:#ba0000;}.cls-7{fill:#e00000;}.cls-8{fill:#ffe39c;}.cls-9{fill:#a80000;}.cls-10{fill:#ff0;}.cls-11{fill:#fc0;}.cls-12{fill:#00753c;}.cls-13{fill:#d1a803;}.cls-14{fill:maroon;}.cls-15{fill:#cf5300;}.cls-16{fill:#ff9e3c;}.cls-17{fill:#e6e6e6;}.cls-18{fill:#fff;}.cls-19{fill:red;}</style></defs><path class="cls-1" d="M1129.35,52.08H-517.35L306,1158.74,1129.35,52.08Zm-121.47,61H-395.88L306,1056.5l701.88-943.39Z" transform="translate(517.35 364.74)"/><path class="cls-2" d="M603.51,291.18c-35.34,62.13-129.55,79-266.41,105.2C198.49,423,74.55,398.58,27.84,328.86c24.15-12,53.38-35.25,87.33-35,33-2.1,47.27,37.87,74.41,36.1,29.9-1.54,49.88-32.54,82.83-35,27.41-1,35.79,40,58.73,39.26C368.57,331.71,381,276.7,410.56,275c34.47-2.05,48.89,44.12,78.18,42,22.73-2.41,27.41-44.07,46.13-50.44,20.58.52,45.27,13.69,68.64,24.61Z" transform="translate(517.35 364.74)"/><path class="cls-3" d="M146,398.3c-53.21-11.64-95.12-35-118.19-69.44,24.15-12,53.38-35.25,87.33-35,33-2.1,47.27,37.87,74.41,36.1,29.9-1.54,49.88-32.54,82.83-35,27.41-1,35.79,40,58.73,39.26C368.57,331.71,381,276.7,410.56,275a37,37,0,0,1,18.93,4,39.92,39.92,0,0,1,3.07,15.14c0,57-127.85,103.23-286.53,104.15Z" transform="translate(517.35 364.74)"/><path d="M607.43,302.76C568.92,361,477.7,378.5,347.55,403.42l-8.78,1.68a574,574,0,0,1-107.5,10.68C171.9,415.78,119,405,78.88,384.05c-22.23-11.6-40.58-26.32-54-44a160.75,160.75,0,0,0,16.24-8.13c11.68,14.5,27.27,26.68,46,36.46C124.6,387.93,174.63,398,231.27,398a556.62,556.62,0,0,0,104.16-10.32l8.78-1.68c122.79-23.52,209.05-40,245.9-91.3l.32.15c5.71,2.72,11.4,5.43,17,7.93Z" transform="translate(517.35 364.74)"/><path class="cls-4" d="M-12.68,270.13c-7.38,26.61-4.83,61.49,12.28,65.12,28.17,6,67.06-41.74,115.57-41.41,33-2.1,47.27,37.87,74.41,36.1,29.9-1.54,49.88-32.54,82.83-35,27.41-1,35.79,40,58.73,39.26C368.57,331.71,381,276.7,410.56,275c34.47-2.05,48.89,44.12,78.18,42,22.73-2.41,27.41-44.07,46.13-50.44,29.69.75,67.92,27.82,98.39,36.5,23-2.56,32.09-39.47,23.83-72.29-36.07,12.85-95.21,22.89-162,26-85.44,4-158.29-4.52-186.46-19.9h0a6.69,6.69,0,0,1-.14.86h0c-.07.28-.15.56-.25.85v0a7.58,7.58,0,0,1-.36.84v0c-.14.27-.29.55-.46.82l0,.05c-.16.27-.35.54-.55.82l0,0c-.2.27-.41.54-.65.81l-.05.06c-.23.26-.48.53-.74.79l-.07.07c-.26.26-.53.52-.82.78l-.09.08c-.29.26-.59.51-.91.77l-.11.09q-.46.38-1,.75l-.13.1c-.34.25-.71.5-1.08.75l-.13.09-1.17.75-.15.1-1.24.73-.19.11c-.42.24-.85.48-1.29.71l-.24.13c-.44.23-.89.47-1.36.7l-.25.13-1.43.69-.28.13-1.48.68-.34.15L290,252l-.36.15-1.59.64-.41.17-1.64.63-.42.16-1.71.63-.47.17-1.73.61-.54.18-1.77.6-.54.17-1.86.6-.56.17-1.9.58-.61.19-1.92.56-.71.2-1.9.53-.79.22-1.92.52-.8.21-2,.51-.84.22-2,.49-.9.22-2,.49-.93.22-2.08.47-1,.23-2.05.45-1.07.23-2.11.45-1,.21-2.21.46-1.05.21-2.2.43-1.18.23-2.17.41-1.21.22-2.21.4-1.24.22-2.22.39-1.37.24-2.16.36-1.43.24-2.17.35-1.5.24-2.15.33-1.57.24-2.15.32-1.61.24-2.17.31-1.61.22-2.24.31-1.63.22-2.24.3-1.73.22-2.2.28-1.85.22-2.11.26-2.05.24-2,.23-2.12.24-2,.22-2.08.22-2.09.22-2.07.21-2.09.21-2.08.2-2.19.2-2,.19-2.25.2-2.06.18-2.26.19-2,.16-2.34.19-2.07.16-2.32.17-2.13.16-2.29.16-2.42.16-2,.13-2.3.14-2.24.14-2.08.12-2.43.14-2.55.13-2,.1-3.17.15-1.4.07h-.05l-4.6.19-4.21.16-.67,0-4,.13-.85,0-4,.11h-.53l-4.11.1h-.13l-4,.07-.82,0-3.78.05h-.84l-3.79,0h-.7l-3.48,0H87.52l-3.64,0H83l-3.61,0h-.67L75.49,278l-.73,0-3.52-.07-.86,0L67,277.82l-1,0-3.36-.11-.66,0-3-.11-.91,0L55,277.38l-1.06-.05-3.07-.15-1-.05L46.93,277l-.88-.05-2.69-.16-1-.06-2.86-.19-1.22-.09-2.71-.19-1.13-.09L32.15,276l-1.34-.11-2.23-.19-1.21-.11-2.48-.22-1.29-.12L21.41,275l-1.53-.15-1.57-.17-1.93-.21-1.58-.18-1.35-.15-2.19-.26-1.33-.17-1.58-.2-1.78-.24-1.43-.19-1.73-.24-1.47-.22-1.33-.19-1.88-.29-1.34-.21-1.13-.19-2-.33-1-.18-1.87-.33-1.16-.21-1.22-.23-1.69-.33Zm307.76-73.32-.25,0-2.78.16.75.3.95.39.05,0,.68.28.7.3c0-.49-.07-1-.1-1.47Z" transform="translate(517.35 364.74)"/><path class="cls-5" d="M560.56,251.29c25.1,7.2,53.64,25.43,78.2,34.52,16.41-5.59,24.21-30.43,21.77-56.29-23.81,9-58.81,16.68-100,21.77Z" transform="translate(517.35 364.74)"/><path class="cls-5" d="M436.89,257.58c22.4,11.64,36.59,40.71,60.32,39.74.63-.05,1.25-.13,1.85-.23,12.73-9.14,18.85-32.28,29.93-42.53-11,.93-22.37,1.68-33.95,2.22-20.23,1-39.76,1.19-58.15.8Z" transform="translate(517.35 364.74)"/><path class="cls-5" d="M295.18,198.28c-.2-3.05-.35-6.06-.35-9.81a13,13,0,0,1,3.17-8l-2.29.14c-25,1.51-49.78,2.9-73.15,4.06h.05c8.64.68,16.79,1.51,24.36,2.48l.14,0q1.27.15,2.52.33l.35,0,3.55.5.12,0,2.32.35.44.06q2.83.45,5.53.91l.54.09,2,.35.82.15,1.91.36,1.06.21,1.63.33.93.19,1.52.32,1.28.28,1.26.29,1.11.26,1.34.31,1.31.33.91.23,1.28.34,1.09.29,1.13.32,1,.29,1.23.36.82.25,1.19.38.9.3,1.19.4.63.23,1.16.42.7.26,1.11.44.65.26,1,.43.53.23Z" transform="translate(517.35 364.74)"/><path class="cls-5" d="M149.37,276.34c13.81,11.22,25.59,25,41.92,24.46,30.58-.6,51-31,84.71-32.4,28-.16,36.59,41.16,60.05,41.11,32.76-1.1,46.8-41.25,69.1-53.27-44.31-2.9-79.06-9.8-96.57-19.36h0a7,7,0,0,1-.12.76v.07q-.09.36-.21.72l0,.11c-.09.23-.18.46-.29.7l-.05.11a6.7,6.7,0,0,1-.37.7l-.06.11c-.14.24-.29.48-.46.72l-.05.07a24.63,24.63,0,0,1-7.28,6.25l-.07,0-1.2.71-.15.09-1.25.69-.17.09-1.32.69-.17.08-1.42.7-.12.05a127.66,127.66,0,0,1-15.14,5.86l0,0-2.11.67-.19.05-2.13.65-.2.06-2.18.64-.23.07-2.27.64-.14,0c-7.41,2.05-15.71,4-24.78,5.78h0l-3,.58-.12,0-3,.57-.15,0c-12.57,2.32-26.44,4.39-41.31,6.13h0c-14.9,1.75-30.81,3.17-47.4,4.19Z" transform="translate(517.35 364.74)"/><path class="cls-5" d="M-14.89,269.68a104.92,104.92,0,0,0-.7,17.69C-12.89,294-8.74,298.73-3,300.1c16.94,4,37.68-10.38,62-22.56l-1.26-.05-2.63-.11-1.36-.06-2.62-.13-1.35-.07L47.32,277l-1.5-.08-2.3-.14-1.64-.1-2.13-.14-1.67-.12L36,276.26l-1.72-.13L32.33,276l-1.79-.15-1.81-.15-1.89-.16-1.65-.15-1.91-.19L21.63,275l-1.9-.19-1.28-.13-2.17-.24-1.3-.15-2.1-.24-1.09-.13-2.13-.26-1.17-.15-2.12-.28-1-.13-2.23-.32-.9-.13L0,272.33l-.73-.11L-3,271.87l-.72-.12-2.42-.41-.47-.08-2.17-.39-.73-.13-1.74-.33-1-.2-1.71-.35h0l-.89-.18Z" transform="translate(517.35 364.74)"/><path class="cls-6" d="M694,203.58c0,24.26-89.05,48.08-198.91,53.2-109.41,5.1-198.17-10.27-198.9-34.36l4.76,0c192.64-2.14,348.8-33.07,348.8-69.08a57.37,57.37,0,0,0-.85-8.83c27.4,6.25,43.81,15.05,43.81,25.46,0,18,1.29,22.69,1.29,33.65Z" transform="translate(517.35 364.74)"/><path class="cls-7" d="M648.85,144.47c27.4,6.25,43.81,15.05,43.81,25.46,0,1.69,0,3.27,0,4.75-24.54,20.65-100.58,41.71-190.59,51-72.91,7.54-136.65,5.46-171.28-3.88C509.45,217,649.7,187.43,649.7,153.3a57.37,57.37,0,0,0-.85-8.83Z" transform="translate(517.35 364.74)"/><path class="cls-8" d="M173.78,368.7c11.73,0,21.24,2.61,21.24,5.82s-9.51,5.82-21.24,5.82-21.23-2.6-21.23-5.82,9.51-5.82,21.23-5.82Z" transform="translate(517.35 364.74)"/><path class="cls-8" d="M294,356.37c4,0,7.19,4,7.19,8.91s-3.22,8.9-7.19,8.9-7.19-4-7.19-8.9,3.22-8.91,7.19-8.91Z" transform="translate(517.35 364.74)"/><path class="cls-8" d="M473.08,335.14c7.94,0,14.38,3.07,14.38,6.85s-6.44,6.85-14.38,6.85S458.7,345.77,458.7,342s6.44-6.85,14.38-6.85Z" transform="translate(517.35 364.74)"/><path class="cls-8" d="M553,294.17c3.6,0,6.51,5.67,6.51,12.67s-2.91,12.67-6.51,12.67-6.5-5.67-6.5-12.67,2.91-12.67,6.5-12.67Z" transform="translate(517.35 364.74)"/><path class="cls-8" d="M219.33,341.31c7,0,12.67,4.29,12.67,9.58s-5.67,9.59-12.67,9.59-12.67-4.29-12.67-9.59,5.67-9.58,12.67-9.58Z" transform="translate(517.35 364.74)"/><path class="cls-6" d="M308.63,236.21c0,18.79-80.63,37.23-180.1,41.19s-180.09-8-180.09-26.83c0-13.95-1.17-17.56-1.17-26.06,0-10.28,24.16-20.46,62.35-28.22,62.39,17,169.54,27.45,291.28,26.09,2.32,0,4.62-.06,6.92-.09.35,5.21.81,8.62.81,13.92Z" transform="translate(517.35 364.74)"/><path class="cls-7" d="M-52.55,230.16c-.11-1.73-.18-3.54-.18-5.65,0-10.28,24.16-20.46,62.35-28.22,61.1,16.63,165.12,27,283.73,26.16-32.49,11.65-94.76,21.06-166.25,23.76C44,249.35-26.69,242.48-52.55,230.16Z" transform="translate(517.35 364.74)"/><path class="cls-9" d="M649.7,153.3c0,36-156.16,66.94-348.8,69.08S-47.9,197.07-47.9,161.07c0-9.48-1.56-15.09-2.1-20.87,35.09,28.14,167.88,48.21,329,48q19.23,5.61,37.94,11.37,19.79-6.65,39.73-13c144.27-6,259.47-27.86,290.81-54.67.35,9.43,2.21,14.8,2.21,21.39Z" transform="translate(517.35 364.74)"/><path class="cls-7" d="M-50,140.2c-.11-1.21-.18-2.42-.18-3.68,0-3.77,1.73-7.47,5-11.1C60.38,131.72,175,157.93,279,188.23c-161.13.18-293.92-19.89-329-48Zm673.74-34.84c15.29,7.17,23.69,15,23.69,23.39,0,1.11,0,2.16.06,3.16C616.15,158.72,501,180.56,356.68,186.58c88.25-28.25,178.67-53.17,267.06-81.22Z" transform="translate(517.35 364.74)"/><path class="cls-10" d="M-126.84,124.9C11.08,117.43,176.67,156.46,317,199.6c116.72-39.22,238.43-70.79,355.15-110,4.07-3.78,5.29-7.83,4.2-12.07C564.46,108.88,423.54,131,321.2,165.37,180.94,122.23,31,81.28-106.87,88.74a186.32,186.32,0,0,0-20,16.36c-7.36,6.6-8.34,13.2,0,19.8ZM675.74,75.82Z" transform="translate(517.35 364.74)"/><path class="cls-11" d="M676.3,77.52c-3.51-13.68-31.16-29.28-65-43.86-14,49.29-161.4,86.51-333.94,83.63C132.49,114.88,15.1,85-17,46.17c-34.71,11.12-65.32,25-89.87,42.57C31,81.28,180.94,122.23,321.2,165.37,423.54,131,564.46,108.88,676.3,77.52Z" transform="translate(517.35 364.74)"/><path class="cls-9" d="M595.83,55.36c-44.31,38.05-172.39,64.37-318.51,61.93C148.94,115.15,42.12,91.41-2.85,59L.31,57.56c15-6.88,31.39-14.44,48.61-18.08A470,470,0,0,0,112.27,57c12.19,10.65,23.86,20.74,41.33,20.62h.07c12.94,0,24.19-3.77,35.09-8.79,28.84,3.1,59.68,5,91.9,5.62,7.49,8.38,15.76,15.06,28.27,15.31h.24c16.46-.15,29.12-7.1,40.17-16.2a941.56,941.56,0,0,0,97.33-9.18c10.46,9.55,21.52,17.28,37,17h.24c18.1-.81,27.88-15.11,37.39-29,1-1.49,2-3,3-4.42,11.2-3.22,21.57-6.69,31-10.37,12.87,4.17,26.74,11,40.45,17.77Z" transform="translate(517.35 364.74)"/><path class="cls-7" d="M567.48,32.52c-15.72,7.09-34.73,13.5-56.37,19,8.06-11.54,15.39-24,26.3-26.81,9.49.69,19.64,3.66,30.07,7.76Zm-109.27,30C420.54,68.79,378.07,72.84,333,74.15c25.61-14.6,41.62-47.88,67.17-47.88,26.51-.09,40.88,22.65,58.09,36.28Zm-164.66,12c-3.79,0-7.58-.06-11.4-.12a1015.44,1015.44,0,0,1-112.59-7.92C195,59.67,216.61,38.93,246.9,38.41c23,.38,32.36,24.45,46.65,36.18Zm-162.85-14C92.64,53.71,60,44.62,34.86,34c12.46-3.84,25.53-6.2,39.1-5.43,25.81-.18,40,20.22,56.74,32Z" transform="translate(517.35 364.74)"/><path class="cls-4" d="M-51.82-24.51c-21.53,20.82-28.91,81.81-3.93,88C-25.11,71,20.61,25.51,74,28.55c36.41-.26,49.68,40.45,79.64,40.2,33,.13,56.89-29.71,93.3-30.34,30.22.5,36.92,42,62.2,42.48,41.34-.38,58.41-54.62,91-54.62,38.06-.12,51.08,46.78,83.44,46.27,25.16-1.14,32.87-42.47,53.85-47.78,32.62,2.4,73,31.56,106,41.92,37.78-1.87,45.79-87.94,5.14-122.6-27,30.5-77.27,53-165.5,45.83-88.29-.1-240.59-2.93-327.38-7.61-72.25,1.91-124.44-7.82-160-25.19a8.14,8.14,0,0,1-4.29-.69c-7.33-3.2-37.1,15-43.19,19.07Z" transform="translate(517.35 364.74)"/><path class="cls-5" d="M-51.82-24.51C-58.41-18.13-63.68-8-67.09,3.19c2.55,5.13,6.28,8.88,11.34,10.47C-25.11,23.27,20.61-19.07,74-12.41c36.41,2.23,49.68,43.84,79.64,45.63,33,2.37,56.89-25.84,93.3-24,30.22,2.56,36.92,44.48,62.2,46.71,41.34,2.43,58.41-50.64,91-48.42,38.06,2.46,51.08,50.25,83.44,52,25.16.57,32.87-40.24,53.85-44.12,32.62,4.62,73,36.53,106,49.14,19.62.36,31.21-22.53,32.13-49.87h0c0-1.06.05-2.11.06-3.18h0c0-1.06,0-2.13,0-3.2h0c-.63-23.64-9.1-48.89-27-64.16-27,30.5-77.27,53-165.5,45.83-88.29-.1-240.59-2.93-327.38-7.61C86.41-15.87,35.63-24.77.17-40.81a41.86,41.86,0,0,1-8.8-2.77c-7.33-3.2-37.1,15-43.19,19.07Z" transform="translate(517.35 364.74)"/><path class="cls-2" d="M155.69-15.74C242.48-11.58,394.78-9.06,483.07-9,683.39,5.62,688.26-116.35,668.17-147.82,321.33-691.22-441.66-1.71,155.69-15.74Z" transform="translate(517.35 364.74)"/><path class="cls-3" d="M155.69-15.74c79.83,3.83,215.08,6.27,305,6.7,70.76-35.49,115.25-86.89,115.25-144.09C575.91-260.21,420-347,227.62-347q-3.3,0-6.6,0C-48.9-290.29-229.63-6.69,155.69-15.74Z" transform="translate(517.35 364.74)"/><path d="M156.14-23.63c40.29,1.93,94.31,3.5,149.38,4.64,64.33,1.33,130.2,2.08,177.55,2.13h.7c60.2,4.38,101.84-3.8,130-18.06C632.31-44.29,645-56.29,653.31-69a84.63,84.63,0,0,0,13.45-38.55c1.44-15.64-1.63-29-6.3-36.35-112.15-175.7-268.26-220-406.19-200.9-101,14-192.36,61.7-249.77,116.7C-51.23-174.74-74.55-115-41.85-74.5c26.17,32.4,88,53.43,197.33,50.87Zm149,20.42C249.61-4.36,195.41-5.93,155.44-7.84,39.73-5.19-26.85-28.9-56.24-65.28-94.53-112.67-70-180-8.5-238.89c59.79-57.28,154.91-107,260.06-121.52,144.46-20,307.68,26,424.33,208.69,6.18,9.69,10.33,26.54,8.59,45.39A99.22,99.22,0,0,1,668.67-61.1c-9.78,15-24.59,29-46.11,39.92-31,15.71-76.08,24.77-140.18,20.1h0c-47.52,0-113.2-.8-177.21-2.13Z" transform="translate(517.35 364.74)"/><path d="M-46.18-17.61C-52.32-11.35-57.15-.74-60,10.72a83.24,83.24,0,0,0-2.4,26.14c.59,7,2.3,12.82,5.34,16a7.08,7.08,0,0,0,3.4,2c11.39,2.8,27.8-4.75,46.57-13.38C16.77,30.48,44,18,74.45,19.68h0c22.12,0,36,12.18,49.27,23.75,9.69,8.47,18.93,16.54,29.81,16.45h.07c14.15,0,27.26-6.68,40.72-13.6,15.74-8.08,31.91-16.39,52.44-16.74H247c20,.33,30.64,13.4,40.86,25.89C294.73,63.8,301.28,71.8,309.18,72c18.1-.24,31.79-14.1,44.67-27.12,14-14.17,27.21-27.53,46.27-27.53v0c23.33-.08,37.66,13.79,51.39,27.08,10.14,9.82,19.88,19.24,31.67,19.19h0c9.19-.42,16.44-11,23.49-21.31,7.95-11.62,15.71-23,28.59-26.23l1.37-.35,1.41.1C559.42,17.47,582.68,29,605.43,40.3c13.57,6.74,27,13.38,39,17.38C654.66,56.19,661.85,44.36,665,29a93.15,93.15,0,0,0,1.38-26,93.54,93.54,0,0,0-6.07-26.56,67.75,67.75,0,0,0-11.65-19.56,119.08,119.08,0,0,0,12-13.5,86.35,86.35,0,0,1,16.18,26.52,112.06,112.06,0,0,1,7.26,31.71,111,111,0,0,1-1.73,31c-4.9,23.87-18.26,42-38.55,43l-1.59.08-1.47-.46C627,70.84,612.41,63.58,597.57,56.22,577,46,556,35.57,538.38,33.76c-5.88,2.3-11.4,10.37-17,18.62-9.51,13.91-19.29,28.21-37.39,29h-.24c-19.26.31-31.65-11.69-44.56-24.19-11.19-10.83-22.87-22.13-39-22.07v0c-11.7,0-22.34,10.76-33.61,22.17-15.42,15.59-31.82,32.17-57.34,32.41h-.24c-16.21-.33-25.3-11.44-34.8-23-7.66-9.37-15.68-19.16-27.24-19.42-16.33.32-30.61,7.65-44.51,14.79C187,70,172,77.66,153.67,77.61h-.07C136,77.73,124.31,67.51,112,56.79,101.17,47.29,89.74,37.3,74,37.41h-.52C47.35,35.92,22.26,47.46.31,57.56c-21.77,10-40.8,18.77-58.18,14.5a24.49,24.49,0,0,1-11.95-6.94c-6.09-6.3-9.36-15.9-10.28-26.8A101.66,101.66,0,0,1-77.21,6.48C-73.58-8.27-66.87-22.3-58-30.9l.53-.52.68-.46a247.41,247.41,0,0,1,27.3-15.39A157.09,157.09,0,0,0-2.81-32.33a52.49,52.49,0,0,1-9.37-3.11S-15.61-34-20.11-32A215.34,215.34,0,0,0-46.18-17.61Z" transform="translate(517.35 364.74)"/><path d="M604.15,59.48c-18.67,17.33-51.72,32.14-94.61,43.23C448.27,118.57,366,127.63,277.18,126.15c-54.36-.9-104.84-5.63-148.43-13.22-48-8.35-88-20.22-116.06-34.34A142.37,142.37,0,0,1-12,63.16C-8,61.4-3.91,59.5.31,57.56l6.2-2.84a153.35,153.35,0,0,0,14.17,8C47.17,76.07,85.44,87.36,131.74,95.42c42.93,7.47,92.49,12.12,145.72,13,87.18,1.45,167.79-7.4,227.63-22.89,37.06-9.58,65.73-21.35,82.33-34.33,3.39,1.65,6.78,3.34,10.15,5l6.58,3.26Z" transform="translate(517.35 364.74)"/><path d="M-123.62,115.85c68.71-3.3,143.94,4.62,219.39,18.7,75.6,14.11,151.41,34.39,221.07,55.74,57.77-19.35,116.48-36.78,175.18-54.21S609.61,101.17,666.94,82c1.12-2.09-.05-4.76-2.86-7.78a47.94,47.94,0,0,0-4-3.8,42.13,42.13,0,0,0,12.44-12.66,58.51,58.51,0,0,1,4.57,4.37c10.88,11.71,12.66,23.22,1.07,34l-1.4,1.3-1.84.61C616.27,117.71,556.65,135.41,497,153.11S377.84,188.5,319.77,208l-2.7.91-2.72-.84c-69.88-21.49-146-41.94-221.78-56.08-75.54-14.1-150.73-21.93-219-18.23l-3.3.18-2.64-2.09c-6.6-5.23-9.49-11-9.26-17.17.21-5.83,3.27-11.13,8.64-16h0c16.13-15.32,36-28.32,58.77-39.42a29.3,29.3,0,0,0,4.37,5.87A24.57,24.57,0,0,0-59.17,71.7c-24.21,11.07-45.08,24.18-61.56,39.83l-.2.18c-1.87,1.67-2.91,2.91-2.94,3.61a1,1,0,0,0,.25.53Z" transform="translate(517.35 364.74)"/><path d="M658.6,153.3c0,22.87-41.79,42.58-109.35,56-63.52,12.58-151.3,20.9-248.28,22-9.15.1-16.17.15-21.12.15-91.74,0-174.15-6.74-233.8-17.84-63.52-11.83-102.56-30.09-102.81-52.29v-.17l0,0A85.36,85.36,0,0,0-58,147.29a67.32,67.32,0,0,1-1-10.77,19,19,0,0,1,.23-2.92q8.87.38,17.83,1a7.28,7.28,0,0,0-.27,2,54.89,54.89,0,0,0,.84,8.13A99.07,99.07,0,0,1-39,161.07h0v.06h0c.14,12.42,33.68,24.81,88.29,35C107.73,207,189,213.6,279.85,213.6c9,0,16,0,21-.08,95.66-1.07,182.29-9.28,245-21.7,58.68-11.62,95-25.38,95-38.52a53.65,53.65,0,0,0-.85-8.13,100.33,100.33,0,0,1-1.43-16.42h0v-.06h0c0-4.78-5-9.55-14.28-14.19q9.94-3.15,19.85-6.35c7.86,6.32,12.08,13.15,12.16,20.4v.17l0,0a84.09,84.09,0,0,0,1.23,13.78,68.49,68.49,0,0,1,1.05,10.77Z" transform="translate(517.35 364.74)"/><path d="M683.78,169.93s0,0,0,0Z" transform="translate(517.35 364.74)"/><path d="M702.85,203.58c0,16.68-24.79,31.65-64.86,42.37-36.53,9.76-86.94,17.1-142.57,19.7-14.66.68-28.58,1-41.67,1-45.31,0-85.13-3.65-113.84-10-26-5.71-43.8-14.34-50.12-25.34l11.18-.1q7.33-.09,14.6-.22c6.64,2.87,16.19,5.67,28.1,8.29,27.5,6.05,66,9.54,110.08,9.54,13.56,0,27.25-.3,40.91-.94,54.22-2.53,103.27-9.66,138.74-19.14,31.92-8.54,51.66-17.61,51.66-25.2,0-4.71-.24-8.07-.5-11.85-.37-5.41-.8-11.59-.8-21.8,0-.26,0-.07,0,0h0v-.08c-.22-4.67-9.48-9.43-25.38-13.84a18.9,18.9,0,0,0,.2-2.71,68.49,68.49,0,0,0-1.05-10.77c-.25-1.64-.51-3.36-.73-5.26,27.53,7.19,44,18,44.69,31.82,0,.65,0,.75,0,.84,0,10,.39,15.68.74,20.62.3,4.31.56,8.14.56,13Z" transform="translate(517.35 364.74)"/><path d="M298.57,210.16v0Z" transform="translate(517.35 364.74)"/><path d="M298.58,210.24h0a.25.25,0,0,0,0-.08h0c0,.14,0,.3,0,.08Z" transform="translate(517.35 364.74)"/><path d="M-42.68,250.57a.17.17,0,0,0,0,.07v-.07Z" transform="translate(517.35 364.74)"/><path d="M-42.69,250.48h0s0,.06,0,.09h0c0-.14,0-.3,0-.09Z" transform="translate(517.35 364.74)"/><path d="M317.52,236.21c0,14.11-22.8,26.38-59.66,34.81-33.06,7.56-78.66,13.24-129,15.24-13.4.54-26,.8-37.72.8-41,0-77.12-2.84-103.16-7.76-29.8-5.62-47.9-15.26-48.42-28.12v0c0-.67,0-.25,0-.57,0-7.57-.35-11.92-.66-15.73-.27-3.35-.51-6.34-.51-10.33,0-11.44,15-21.67,40.34-29.63a244.28,244.28,0,0,0,31,10.47C7,205.89,4.48,206.45,2,207c-28.31,6.47-45.83,12.82-45.83,17.49,0,3.46.21,6,.45,8.94.34,4.21.73,9,.73,17.12v.13C-42,254-29.41,258-8.73,261.85c24.87,4.7,59.81,7.41,99.89,7.41,12.4,0,24.8-.23,37-.72,49.15-2,93.59-7.48,125.71-14.83,28.31-6.48,45.83-12.82,45.83-17.5,0-1.83-.06-3.43-.15-5H301q8.25-.1,16.41-.26c.09,1.61.14,3.3.14,5.22Z" transform="translate(517.35 364.74)"/><path d="M-5.94,280.38a94.82,94.82,0,0,0-1.25,27.77c1,8,3.05,14.45,6.46,17.3a5,5,0,0,0,2.17,1.11c9.9,2.1,24.11-6.14,40.38-15.56,16.08-9.32,33.91-19.65,53.93-24q15.6-.09,33.13-.78h.31c13.13,3.28,23.12,11.87,32.74,20.15,9.1,7.83,17.77,15.29,27.09,14.68h.1c12.37-.64,23.73-7.93,35.39-15.42,14-9,28.3-18.18,47.24-19.6h.35c18.65-.7,29.21,12,39.3,24.09,6.45,7.76,12.64,15.18,19.18,15.17h0c15.86-1.05,27.41-15.46,38.26-29,12-15,23.32-29.11,41.2-30.13h0c21.73-1.29,35.64,12,49,24.69,9.65,9.2,18.91,18,29.11,17.28,7.55-1,13.37-11.68,19-22,4.54-8.31,9-16.49,15.2-22.1,11.11-.85,21.93-1.88,32.4-3.08,14.16,3.94,28.86,10.95,43.34,17.85,12.51,6,24.84,11.83,35.78,15.2,8.84-2.1,14.58-13.41,16.6-27.66a86.35,86.35,0,0,0-.12-23.91v0c6.14-1.94,11.82-4,17-6.15.22,1.25.42,2.51.59,3.76a104.3,104.3,0,0,1,.11,28.77c-3.24,22.92-14.82,41.05-33.79,43.15l-1.75.2-1.66-.47C618,308,604.3,301.44,590.43,294.83c-19-9-38.32-18.26-53.93-19.31-4.82,2.63-9.26,10.76-13.79,19.06-7.94,14.53-16.09,29.46-33.06,31.26l-.28,0c-18,1.32-30-10.18-42.6-22.15-10.6-10.11-21.65-20.66-35.69-19.82h0c-10,.55-18.9,11.7-28.37,23.52-13.22,16.5-27.28,34.05-51,35.62h-.28c-15.26.51-24.25-10.29-33.65-21.56-7.27-8.73-14.87-17.86-24.7-17.71h0c-14.47,1.08-26.88,9-39,16.81-13.63,8.76-26.91,17.29-44,18.2h0c-16.5,1.07-27.84-8.69-39.74-18.92-10.22-8.8-21-18.06-34.66-17.19h-.6c-23.31-.16-45.22,12.54-64.41,23.66-19.43,11.25-36.4,21.09-53,17.58a22.5,22.5,0,0,1-9.88-4.86c-7.17-6-11.26-16.62-12.71-28.91a112.84,112.84,0,0,1,1.49-33.35Q-18,278.17-12,279.3q2.94.56,6.06,1.08Z" transform="translate(517.35 364.74)"/><path class="cls-12" d="M482.38-1.23ZM622.56-23.81C591.52-6.17,546.48,4,482.38-1.23c-47.52-.06-113.2-.9-177.21-2.39C249.61-4.91,195.41-6.68,155.44-8.83a580,580,0,0,1-61.52-1.46C126.88-.59,169.48,4.34,223,2.93c44.39,2.39,105.91,4.3,167.24,5.61a29.18,29.18,0,0,1,9.88-1,45.51,45.51,0,0,1,8.62,1.4c52.23,1,103.05,1.58,141.64,1.62C600,14.6,637.67,9.24,665.9-1.66a92.22,92.22,0,0,0-5.58-22,67.75,67.75,0,0,0-11.65-19.56,129.49,129.49,0,0,1-26.11,19.37Z" transform="translate(517.35 364.74)"/><path class="cls-13" d="M317.49,130c141.3,2.36,265.73-22.17,313.85-58.21-8.83-3.45-18-7.79-27.19-12.34-18.67,17.33-51.72,32.14-94.61,43.23C448.27,118.57,366,127.63,277.18,126.15c-21.39-.35-42.19-1.3-62.19-2.78,31.85,3.74,66.32,6.06,102.5,6.66Z" transform="translate(517.35 364.74)"/><path class="cls-9" d="M246.89,47.28c-16.33.32-30.61,7.65-44.51,14.79-4.54,2.34-9,4.65-13.62,6.75q10.26,1.11,20.85,2c17.1-2.6,32.09-12.44,48.43-20.09a21.86,21.86,0,0,0-11.15-3.46Z" transform="translate(517.35 364.74)"/><path class="cls-9" d="M366.51,57.34a231.27,231.27,0,0,1-17.17,16.21q20.24-.9,39.59-2.52c11.5-8.9,21.25-20.78,31.48-29.63-6.05-3.79-12.67-6.29-20.29-6.26v0c-11.7,0-22.34,10.76-33.61,22.17Z" transform="translate(517.35 364.74)"/><path class="cls-14" d="M388.93,71q-19.33,1.62-39.59,2.52c-2.19,1.8-4.44,3.52-6.77,5.12a23.88,23.88,0,0,0,13.82,5c12.77-.12,23.23-5.38,32.54-12.59Z" transform="translate(517.35 364.74)"/><path class="cls-9" d="M538.38,33.76c-4.82,1.89-9.4,7.64-14,14.2,11.2-3.22,21.57-6.69,31-10.37a83.76,83.76,0,0,0-17-3.83Z" transform="translate(517.35 364.74)"/><path class="cls-14" d="M509.44,68.19c6.38,4.35,13.29,7.21,21.41,7.08,16.8-.76,25.82-19.44,36.21-33.35-4-1.63-7.86-3.09-11.68-4.33-9.43,3.68-19.8,7.15-31,10.37-1,1.45-2,2.93-3,4.42a146,146,0,0,1-11.89,15.81Z" transform="translate(517.35 364.74)"/><path class="cls-6" d="M624.28,114.5c-42.18,13.35-84.72,26-127.25,38.61-34.42,10.22-68.83,20.44-102.95,31l.74.47,243.71-55v-.89h0v-.06c0-4.78-5-9.55-14.28-14.19Z" transform="translate(517.35 364.74)"/><path class="cls-6" d="M488.61,221.27c110.48-12.17,185.76-34.71,185.81-59.7a109.26,109.26,0,0,0-16-5.56c-3.16,21.72-44.28,40.41-109.16,53.26-22,4.35-46.85,8.19-74,11.4-30.18,3.56-63.18,6.35-98.14,8.18,1.47.11,3,.22,4.46.31,38.1-1.57,74.13-4.27,107-7.89Z" transform="translate(517.35 364.74)"/><path class="cls-2" d="M114.51,302.7c-23.07.07-44.77,12.64-63.79,23.66-3.28,1.9-6.49,3.76-9.64,5.52A121.63,121.63,0,0,0,51.36,343.1c14.7-6.33,31.41-18.16,50.05-26.84,9.73-4.53,20-8.21,30.74-9.8a31.11,31.11,0,0,0-16.42-3.76h-1.22Z" transform="translate(517.35 364.74)"/><path class="cls-2" d="M273.07,303.79c-14.47,1.08-26.88,9-39,16.81-10.6,6.81-21,13.48-33.09,16.54,5.37,3.1,11,5,17.4,4.57,25.29-1.3,43.48-23.66,68.41-32-4.16-3.56-8.65-6-13.75-5.89Z" transform="translate(517.35 364.74)"/><path class="cls-2" d="M382.68,307.43c-10.5,13.1-21.52,26.86-37.48,32.76,4.38,3.62,9.14,6,14.78,5.76,33.08-2.18,46.64-45.39,69.74-56.56-5.71-3.61-11.82-5.89-18.64-5.48h0c-10,.55-18.9,11.7-28.37,23.52Z" transform="translate(517.35 364.74)"/><path class="cls-15" d="M522.71,294.58c-6.38,11.69-12.9,23.63-24,28.8,5.77,3.68,11.92,5.92,18.91,5.41,20.65-2.19,26.4-36.77,41.31-47.86-7.95-2.91-15.53-4.95-22.39-5.41-4.82,2.63-9.26,10.76-13.79,19.06Z" transform="translate(517.35 364.74)"/><path class="cls-8" d="M142.18-280.88c9.77-6.49,19.12-9.59,20.9-6.91s-4.69,10.11-14.45,16.61-19.12,9.58-20.9,6.91,4.69-10.11,14.45-16.61Z" transform="translate(517.35 364.74)"/><path class="cls-8" d="M265.6-294.18c4,0,7.2,4,7.2,8.9s-3.22,8.91-7.2,8.91-7.19-4-7.19-8.91,3.22-8.9,7.19-8.9Z" transform="translate(517.35 364.74)"/><path class="cls-8" d="M313.89-330.48c7.94,0,14.38,3.07,14.38,6.85s-6.44,6.85-14.38,6.85-14.38-3.07-14.38-6.85,6.44-6.85,14.38-6.85Z" transform="translate(517.35 364.74)"/><path class="cls-8" d="M191-309.25c7,0,12.67,4.29,12.67,9.59S198-290.07,191-290.07s-12.67-4.29-12.67-9.59,5.67-9.59,12.67-9.59Z" transform="translate(517.35 364.74)"/><path class="cls-8" d="M333.17-241c9.34-7.08,18.49-10.74,20.44-8.18s-4.06,10.38-13.41,17.46-18.49,10.75-20.44,8.19,4.06-10.38,13.41-17.47Z" transform="translate(517.35 364.74)"/><path class="cls-8" d="M456.88-254.51c4,0,7.19,4,7.19,8.91s-3.22,8.9-7.19,8.9-7.19-4-7.19-8.9,3.22-8.91,7.19-8.91Z" transform="translate(517.35 364.74)"/><path class="cls-8" d="M382.23-269.57c7,0,12.67,4.29,12.67,9.58s-5.67,9.59-12.67,9.59-12.67-4.29-12.67-9.59,5.67-9.58,12.67-9.58Z" transform="translate(517.35 364.74)"/><path class="cls-8" d="M439.85-170c4,0,7.19,4,7.19,8.9s-3.22,8.9-7.19,8.9-7.2-4-7.2-8.9,3.22-8.9,7.2-8.9Z" transform="translate(517.35 364.74)"/><path class="cls-8" d="M631.12-130.31c4,0,7.19,4,7.19,8.9s-3.21,8.91-7.19,8.91-7.19-4-7.19-8.91,3.22-8.9,7.19-8.9Z" transform="translate(517.35 364.74)"/><path class="cls-8" d="M556.47-145.38c7,0,12.67,4.3,12.67,9.59s-5.67,9.59-12.67,9.59-12.67-4.29-12.67-9.59,5.67-9.59,12.67-9.59Z" transform="translate(517.35 364.74)"/><path class="cls-8" d="M112.63-298.68c28.21-19.53-101.38,89.13-74.31,169.12,24.19,78.22-157.53-8.59,74.31-169.12Z" transform="translate(517.35 364.74)"/><path class="cls-16" d="M37.68,219.75c11.72,0,21.23,2.61,21.23,5.82s-9.51,5.82-21.23,5.82-21.24-2.6-21.24-5.82,9.51-5.82,21.24-5.82Z" transform="translate(517.35 364.74)"/><path class="cls-16" d="M86.52,227.4c11.73,0,21.23,2.61,21.23,5.82S98.25,239,86.52,239s-21.23-2.6-21.23-5.82,9.51-5.82,21.23-5.82Z" transform="translate(517.35 364.74)"/><path class="cls-8" d="M232-204.14c4,0,7.19,4,7.19,8.9s-3.22,8.91-7.19,8.91-7.19-4-7.19-8.91,3.22-8.9,7.19-8.9Z" transform="translate(517.35 364.74)"/><path class="cls-8" d="M135.5-162.94c4,0,7.19,4,7.19,8.9s-3.22,8.9-7.19,8.9-7.19-4-7.19-8.9,3.22-8.9,7.19-8.9Z" transform="translate(517.35 364.74)"/><path class="cls-8" d="M304.87-117.72c7,0,12.67,4.29,12.67,9.59s-5.67,9.58-12.67,9.58-12.67-4.29-12.67-9.58,5.67-9.59,12.67-9.59Z" transform="translate(517.35 364.74)"/><path class="cls-1" d="M-232.25,956.74V349.79l46.58-5.78,37.85-4.7v0l42.11-5.22c17.07-2.13,33.53,1.23,47.18,9.38v-15c99.75-12.38,199.05-24.95,298.69-37.32,21.46-2.66,42,3.32,57.11,16.6a68.37,68.37,0,0,1,8,8.32,99.91,99.91,0,0,1,7.94-10.21c15.23-17.11,35.79-28.23,57.34-30.9l45.58-5.67c18.44-2.28,36.16,1.78,50.43,11.36V263.22c99.17-12.32,197.78-24.79,296.88-37.1,21.45-2.66,41.94,3.32,57.1,16.6s23.7,32.71,23.7,54.17V381c0,19.73-7.06,39.13-20.34,55.36-1.12,1.36-2.27,2.7-3.46,4l7.67,145.18A58.89,58.89,0,0,1,838.91,620V754.6c0,20.65-9.81,40.75-25.88,55.55A89.26,89.26,0,0,1,764,833l-37.54,4.66c-15.64,2-31.14-.62-44.11-7.7a89.12,89.12,0,0,1-44.11,18.66l-37.54,4.66c-15.4,1.91-30.65-.54-43.5-7.37a89.15,89.15,0,0,1-43.49,18.18l-746,92.64Z" transform="translate(517.35 364.74)"/><path class="cls-17" d="M-25.48,729.92V780l64-7.95,4.35-.54v29.4l-4.35.54-64,8v50.11l64-8,4.35-.54v29.41l-4.35.54-94.38,11.72-4.35.54V704.83l4.35-.54,94.38-11.73L42.9,692v29.4l-4.35.54-64,7.95ZM549.2,335.59V416.3l78.56-9.76,4.47-.56v40.53l-4.47.55-78.56,9.76v80.71l78.56-9.76,4.47-.56v40.52l-4.47.56L513.15,582.52l-4.47.56v-283l4.47-.56,114.61-14.23,4.47-.56v40.53l-4.47.55-78.56,9.76Zm169.57,99.67V557l-4.47.55-30.81,3.83-4.47.55V278.72l4.47-.56,80-9.93a34.53,34.53,0,0,1,27.33,8,33.94,33.94,0,0,1,11.36,25.92v84.09a40,40,0,0,1-9.37,25.64,52.79,52.79,0,0,1-20.34,14.89l28.45,114.55,1.32,5.34-5.65.7-31.69,3.93-3.5.44-.83-3.34L732,433.61l-13.26,1.65Zm43.62-45.17v-82l-43.63,5.43v82l43.64-5.42ZM95.74,622.91a44.66,44.66,0,0,1-27.56,14.87l-45.59,5.67c-21.47,2.66-39-12.71-39-34.18v-244l4.47-.55,31.57-3.93,4.47-.55V602.75l42.59-5.29V355l4.47-.55,31.58-3.93,4.47-.55v244a44,44,0,0,1-11.46,29Zm99.75-122.67V622l-4.47.56-30.81,3.83-4.47.55V343.7l4.47-.55,79.95-9.93a34.5,34.5,0,0,1,27.34,8,34,34,0,0,1,11.36,25.93V451.2a40,40,0,0,1-9.37,25.64,53,53,0,0,1-20.34,14.89L277.6,606.28l1.32,5.33-5.65.7-31.69,3.94-3.5.43-.83-3.33L208.75,498.6l-13.26,1.64Zm43.62-45.16v-82l-43.63,5.43v82l43.64-5.42ZM-190.14,665.4V386.67l4.47-.55,80-9.93v0a34.53,34.53,0,0,1,27.33,8A33.94,33.94,0,0,1-67,410.06v84.09a39,39,0,0,1-1.75,11.57,39.52,39.52,0,0,1-3.39,7.89,29.84,29.84,0,0,1,3.39,7A34.81,34.81,0,0,1-67,531.79v84.09a43.67,43.67,0,0,1-11.36,28.75,44.29,44.29,0,0,1-27.33,14.75v0l-80,9.93-4.47.56V665.4Zm83.37-127.62-43.64,5.42v82l43.63-5.41v-82Zm0-39.75V416l-43.63,5.43v82l43.64-5.42Zm550.48,81.66a44.65,44.65,0,0,1-27.57,14.88l-45.58,5.66c-21.47,2.67-39-12.7-39-34.17V360.89a44.08,44.08,0,0,1,11.45-29A44.69,44.69,0,0,1,370.56,317l45.58-5.66a34.84,34.84,0,0,1,27.57,8,34.26,34.26,0,0,1,11.45,26.14v25.76l-4.47.55-31.57,3.93-4.47.55V352.06l-42.6,5.29V559.53l42.6-5.29V473.3l-21.3,2.64-4.47.56V436l4.47-.56c12.6-1.56,20.6-2.6,28.62-3.65,11-1.43,22-2.86,28.72-3.69l4.47-.56V550.71a44,44,0,0,1-11.45,29ZM786.8,780.47A41.55,41.55,0,0,1,764,790.9l-37.54,4.67c-8.83,1.09-16.9-.82-22.8-4.78a21.55,21.55,0,0,1-10-18.16V754.39l4.35-.54,26-3.23,4.35-.54v15.85l33.75-4.19V711.3l-16.37,2c20.75-2.57,31.89-4-47.73,5.94l-4.35.54V638.06c0-7.62,3.83-15,10-20.64A41.59,41.59,0,0,1,726.46,607L764,602.32c8.83-1.1,16.91.81,22.8,4.77a21.57,21.57,0,0,1,10,18.16v18.31l-4.35.54-26,3.23-4.34.54V632l-33.75,4.19v50.44l29.92-3.67,34.17-4.24,4.35-.54v81.69c0,7.62-3.83,15-10,20.64ZM732.23,715c-15,1.86-18.56,2.31-16.13,2l16.13-2ZM536.5,811.55A41.53,41.53,0,0,1,513.71,822l-37.54,4.66c-8.83,1.1-16.91-.81-22.8-4.77a21.57,21.57,0,0,1-10-18.16V669.15c0-7.63,3.83-15,10-20.65a41.55,41.55,0,0,1,22.8-10.43l37.54-4.67c8.83-1.09,16.9.82,22.79,4.78a21.54,21.54,0,0,1,10,18.16V790.91c0,7.62-3.83,15-10,20.64ZM478.06,797l33.75-4.19V663l-33.75,4.19V797Zm-60,36.86-25.92,3.22-4.35.54V649.2l4.35-.54L418,645.44l4.35-.54V833.33l-4.35.54Zm243-37.78a41.62,41.62,0,0,1-22.8,10.43l-37.54,4.66c-8.83,1.1-16.9-.81-22.8-4.77a21.55,21.55,0,0,1-10-18.16V626.82l4.35-.54,26-3.22,4.35-.54v159l33.75-4.19v-159l4.34-.54,26-3.22L671,614V775.44c0,7.63-3.83,15-10,20.65ZM233.1,856.84l-25.92,3.22-4.35.54V672.16l4.35-.54,25.92-3.22,4.35-.54V856.3l-4.35.54ZM103.36,873l-.24,0-.16,0-.41,0-.4.05-.3,0h-.11l-.4.05-.41,0-.35,0h0l-.41.05-.4,0-.41.05h0l-.4,0-.41,0-.4.05H98l-.34,0-.4.05-.41,0-.12,0-.28,0-.41.06-.4,0-.18,0-.23,0-.4,0-.41,0-.23,0-.17,0-.41,0-.4.05-.3,0-.11,0-.4,0-.41.05-.35,0h0l-.41.05-.4,0-.41,0-13,1.61-4.35.54V688.28l4.35-.54,25.92-3.22,4.35-.54V843.07l64.12-8,4.34-.54v29.34l-4.34.54L103.36,873ZM356,834a41.66,41.66,0,0,1-22.8,10.44l-37.54,4.66c-8.83,1.09-16.91-.81-22.8-4.78a21.54,21.54,0,0,1-10-18.15V691.56c0-7.62,3.83-15,10-20.64a41.66,41.66,0,0,1,22.8-10.44l37.54-4.66c8.83-1.09,16.9.82,22.8,4.78a21.54,21.54,0,0,1,10,18.15v18.31l-4.35.54-26,3.23-4.35.54V685.46l-33.75,4.19V819.43l33.75-4.19V799.33l4.35-.54,26-3.23L366,795v18.31c0,7.62-3.83,15-10,20.64ZM-97,890.23a41.58,41.58,0,0,1-22.8,10.43l-66,8.2-4.35.54V720.83l4.35-.54,32.94-4.09,33.05-4.1v0c8.83-1.1,16.9.81,22.8,4.77A21.57,21.57,0,0,1-87,735V869.59c0,7.62-3.83,15-10,20.64Zm-24.7-148.51-33.54,4.16V875.67l33.54-4.17V741.72Z" transform="translate(517.35 364.74)"/><path class="cls-18" d="M-25.48,729.92v43.67q-17.47.88-34.7,1.5V704.83l4.35-.54,94.38-11.73L42.9,692v29.4l-4.35.54-64,7.95ZM782,604.53q-42.3,17.33-88.35,33.46c0-7.6,3.85-14.91,10-20.57A41.59,41.59,0,0,1,726.46,607L764,602.32a35.53,35.53,0,0,1,18,2.21Zm-111,41.2q-17.13,5.76-34.69,11.33V618.32l4.34-.54,26-3.22L671,614v31.71Zm-68.44,21.7q-17.18,5.13-34.7,10.09v-50.7l4.35-.54,26-3.22,4.35-.54v44.91Zm-56.09,16q-17.19,4.66-34.7,9.15V663l-33.75,4.19V701q-17.21,4.14-34.69,8.11V669.15c0-7.63,3.83-15,10-20.65a41.55,41.55,0,0,1,22.8-10.43l37.54-4.67c8.83-1.09,16.9.82,22.79,4.78a21.54,21.54,0,0,1,10,18.16v27.1ZM422.36,713.75q-17.17,3.75-34.61,7.31V649.2l4.35-.54L418,645.44l4.35-.54v68.85ZM297.55,737.9q-17.24,2.91-34.69,5.63v-52c0-7.62,3.83-15,10-20.64a41.66,41.66,0,0,1,22.8-10.44l37.54-4.66c8.83-1.09,16.9.82,22.8,4.78a21.54,21.54,0,0,1,10,18.15v18.31l-4.35.54-26,3.23-4.35.54V685.46l-33.75,4.19V737.9Zm-60.1,9.49q-17.23,2.54-34.62,4.89V672.16l4.35-.54,25.92-3.22,4.35-.54v79.53ZM107.71,763.47q-17.38,1.75-34.62,3.29V688.28l4.35-.54,25.92-3.22,4.35-.54v79.49ZM-87,775.94q-17.49.46-34.7.65V741.72l-33.54,4.16v30.86q-17.61-.06-34.9-.39V720.83l4.35-.54,32.94-4.09,33.05-4.1v0c8.83-1.1,16.9.81,22.8,4.77A21.57,21.57,0,0,1-87,735v40.93ZM549.2,335.59V416.3l78.56-9.76,4.47-.56v40.53l-4.47.55-78.56,9.76v80.71l78.56-9.76,4.47-.56v40.52l-4.47.56L513.15,582.52l-4.47.56v-283l4.47-.56,114.61-14.23,4.47-.56v40.53l-4.47.55-78.56,9.76Zm169.57,99.67V557l-4.47.55-30.81,3.83-4.47.55V278.72l4.47-.56,80-9.93a34.53,34.53,0,0,1,27.33,8,33.94,33.94,0,0,1,11.36,25.92v84.09a40,40,0,0,1-9.37,25.64,52.79,52.79,0,0,1-20.34,14.89l28.45,114.55,1.32,5.34-5.65.7-31.69,3.93-3.5.44-.83-3.34L732,433.61l-13.26,1.65Zm43.62-45.17v-82l-43.63,5.43v82l43.64-5.42ZM95.74,622.91a44.66,44.66,0,0,1-27.56,14.87l-45.59,5.67c-21.47,2.66-39-12.71-39-34.18v-244l4.47-.55,31.57-3.93,4.47-.55V602.75l42.59-5.29V355l4.47-.55,31.58-3.93,4.47-.55v244a44,44,0,0,1-11.46,29Zm99.75-122.67V622l-4.47.56-30.81,3.83-4.47.55V343.7l4.47-.55,79.95-9.93a34.5,34.5,0,0,1,27.34,8,34,34,0,0,1,11.36,25.93V451.2a40,40,0,0,1-9.37,25.64,53,53,0,0,1-20.34,14.89L277.6,606.28l1.32,5.33-5.65.7-31.69,3.94-3.5.43-.83-3.33L208.75,498.6l-13.26,1.64Zm43.62-45.16v-82l-43.63,5.43v82l43.64-5.42ZM-190.14,665.4V386.67l4.47-.55,80-9.93v0a34.53,34.53,0,0,1,27.33,8A33.94,33.94,0,0,1-67,410.06v84.09a39,39,0,0,1-1.75,11.57,39.52,39.52,0,0,1-3.39,7.89,29.84,29.84,0,0,1,3.39,7A34.81,34.81,0,0,1-67,531.79v84.09a43.67,43.67,0,0,1-11.36,28.75,44.29,44.29,0,0,1-27.33,14.75v0l-80,9.93-4.47.56V665.4Zm83.37-127.62-43.64,5.42v82l43.63-5.41v-82Zm0-39.75V416l-43.63,5.43v82l43.64-5.42Zm550.48,81.66a44.65,44.65,0,0,1-27.57,14.88l-45.58,5.66c-21.47,2.67-39-12.7-39-34.17V360.89a44.08,44.08,0,0,1,11.45-29A44.69,44.69,0,0,1,370.56,317l45.58-5.66a34.84,34.84,0,0,1,27.57,8,34.26,34.26,0,0,1,11.45,26.14v25.76l-4.47.55-31.57,3.93-4.47.55V352.06l-42.6,5.29V559.53l42.6-5.29V473.3l-21.3,2.64-4.47.56V436l4.47-.56c12.6-1.56,20.6-2.6,28.62-3.65,11-1.43,22-2.86,28.72-3.69l4.47-.56V550.71a44,44,0,0,1-11.45,29Z" transform="translate(517.35 364.74)"/><path class="cls-1" d="M-296.59-48.91v19.45l27.19-.06v6.85l-27.19.06V-3.17l27.19-.06V3.62l-37.53.08V-55.73l37.53-.08V-49l-27.19.06Z" transform="translate(517.35 364.74)"/><path class="cls-1" d="M-417.92-48.69v19.44l27.19-.06v6.85l-27.19.06V3.89l-10.34,0V-55.52l37.53-.08v6.85l-27.19.06Z" transform="translate(517.35 364.74)"/><path class="cls-1" d="M-177.24-29.68l16.85,0V-56L-150-56V3.4l-10.34,0v-26.3l-16.85,0V3.46l-10.34,0q0-29.73,0-59.44l10.35,0v26.29Z" transform="translate(517.35 364.74)"/><path class="cls-1" d="M-357.68-22.61V3.79l-10.09,0V-55.67l26.19-.06c6.16,0,11.21,3.31,11.21,7.4V-30.1c0,4-4.52,6.54-10,7.31l9.66,26.52-10.38,0-9.61-26.38-6.95,0Zm16.1-6.72c.61,0,1.11-.34,1.11-.74V-48.31c0-.41-.5-.74-1.11-.74l-16.1,0v19.72l16.1,0Z" transform="translate(517.35 364.74)"/><path class="cls-1" d="M-219.78,3.54c6.23,0,11.32-3.4,11.32-7.52V-29.55l-27.22,0V-48.42c0-.36.43-.64,1-.64l14.93,0c.47,0,1,.3,1,.65v4.61l10.34,0v-4.62c0-4.12-5.09-7.48-11.32-7.46l-14.93,0c-6.22,0-11.31,3.39-11.31,7.52V-22.8l27.22-.06V-4c0,.37-.43.65-1,.65l-14.93,0c-.53,0-1-.29-1-.64v-4.6l-10.34,0V-3.9c0,4.13,5.09,7.49,11.31,7.47l14.93,0Z" transform="translate(517.35 364.74)"/><path class="cls-1" d="M1005.59-49v19.57h29.48v6.9h-29.48V-3h29.48V3.91H994.38V-55.93h40.69V-49Z" transform="translate(517.35 364.74)"/><path class="cls-1" d="M827-40.28,816.36-15.84h21.26L827-40.28ZM813.37-8.95,807.8,3.88l-11.55,0,25.92-59.67h9.62l26,59.64H846.21L840.63-8.95Z" transform="translate(517.35 364.74)"/><path class="cls-1" d="M902.27,3.91c6.75,0,12.26-3.39,12.26-7.54V-29.38L885-29.4v-19c0-.36.46-.65,1.05-.65h16.19c.5,0,1.05.31,1.05.65v4.65h11.21v-4.65c0-4.15-5.52-7.54-12.26-7.54H886.08c-6.75,0-12.26,3.39-12.26,7.54v25.77h29.5v19c0,.36-.47.65-1.05.65H886.08c-.58,0-1.06-.3-1.06-.65V-8.26H873.82v4.63c0,4.15,5.51,7.54,12.26,7.54Z" transform="translate(517.35 364.74)"/><path class="cls-1" d="M769,3.91H757.83v-53H743.08v-6.87h40.69v6.87H769v53Z" transform="translate(517.35 364.74)"/><path class="cls-1" d="M958.46,3.91H947.28v-53H932.52v-6.87h40.69v6.87H958.46v53Z" transform="translate(517.35 364.74)"/><path class="cls-19" d="M-60.46,250.57c0-7.57-.35-11.92-.66-15.73-.27-3.35-.51-6.34-.51-10.33,0-11.44,15-21.67,40.34-29.63-22.63-9.62-35.33-21-35.47-33.61v-.17l0,0A85.36,85.36,0,0,0-58,147.29a67.32,67.32,0,0,1-1-10.77,19.18,19.18,0,0,1,.23-2.93c-23.09-1-45.68-1-67.55.18l-3.3.18-2.64-2.09c-6.6-5.23-9.49-11-9.26-17.17,0-.53.06-1.06.13-1.58H-395.88l175,235.27,35.17-4.37,37.85-4.7v0l42.11-5.22c17.07-2.13,33.53,1.23,47.18,9.38v-15l36.7-4.56a66.23,66.23,0,0,1-3-13.7,112.84,112.84,0,0,1,1.49-33.35c-23-5.79-36.62-14.51-37.07-25.64v0c0-.67,0-.25,0-.57Z" transform="translate(517.35 364.74)"/><polygon class="cls-19" points="959.92 1237.67 709.88 1268.72 823.35 1421.23 959.92 1237.67 959.92 1237.67"/><polygon class="cls-9" points="709.9 1268.74 749.12 1321.47 912.65 1301.2 959.85 1237.77 709.9 1268.74 709.9 1268.74"/><path class="cls-19" d="M763.45,226.12c21.45-2.66,41.94,3.32,57.1,16.6s23.7,32.71,23.7,54.17v36.16l163.63-219.94H649.45c4.43,4.89,6.78,10,6.84,15.44v.17l0,0a72.31,72.31,0,0,0,.5,8.52c27.53,7.19,44,18,44.69,31.82,0,.65,0,.75,0,.84,0,10,.39,15.68.74,20.62.3,4.31.56,8.14.56,13,0,12.1-13.05,23.3-35.52,32.63.11.62.21,1.25.31,1.87q47.86-6,95.81-12Z" transform="translate(517.35 364.74)"/><path class="cls-9" d="M734.12,176.19q15.42-5,30.78-10.14l1.84-.62,1.39-1.29c11.6-10.77,9.81-22.28-1.07-34a56.73,56.73,0,0,0-4.57-4.36,63.21,63.21,0,0,0,6.31-12.67H649.45c4.43,4.89,6.78,10,6.84,15.44v.17l0,0a72.31,72.31,0,0,0,.5,8.52c27.53,7.19,44,18,44.69,31.82,0,.65,0,.75,0,.84,0,5.23.11,9.27.26,12.63.14,3.1.31,5.62.48,8,.3,4.31.56,8.14.56,13,0,12.1-13.05,23.3-35.52,32.63.11.62.21,1.24.31,1.86h0q47.86-6,95.81-12a78.24,78.24,0,0,1,24.31.73c-6.4-9-20.69-16.24-41-21.53a74.86,74.86,0,0,1-.49-8.52l0,0v-.18c-.07-6.48-3.45-12.62-9.78-18.37-.75-.68-1.54-1.36-2.37-2Z" transform="translate(517.35 364.74)"/></svg>