<?xml version="1.0" encoding="UTF-8"?>
<svg width="700pt" height="700pt" version="1.1" viewBox="0 0 700 700" xmlns="http://www.w3.org/2000/svg" xmlns:xlink="http://www.w3.org/1999/xlink">
 <defs>
  <symbol id="m" overflow="visible">
   <path d="m31.266-1.875c-1.6172 0.84375-3.2969 1.4766-5.0469 1.8906-1.7422 0.42578-3.5586 0.64062-5.4531 0.64062-5.668 0-10.156-1.582-13.469-4.75-3.3125-3.1641-4.9688-7.4609-4.9688-12.891 0-5.4375 1.6562-9.7383 4.9688-12.906 3.3125-3.1641 7.8008-4.75 13.469-4.75 1.8945 0 3.7109 0.21484 5.4531 0.64062 1.75 0.42969 3.4297 1.0586 5.0469 1.8906v7.0469c-1.625-1.1133-3.2305-1.9258-4.8125-2.4375-1.5742-0.51953-3.2344-0.78125-4.9844-0.78125-3.1367 0-5.6016 1.0078-7.3906 3.0156-1.793 2-2.6875 4.7617-2.6875 8.2812 0 3.5117 0.89453 6.2734 2.6875 8.2812 1.7891 2 4.2539 3 7.3906 3 1.75 0 3.4102-0.25391 4.9844-0.76562 1.582-0.51953 3.1875-1.332 4.8125-2.4375z"/>
  </symbol>
  <symbol id="h" overflow="visible">
   <path d="m22.875-18.578c-0.71094-0.33203-1.418-0.57812-2.125-0.73438-0.71094-0.15625-1.418-0.23438-2.125-0.23438-2.1055 0-3.7266 0.67188-4.8594 2.0156-1.125 1.3438-1.6875 3.2656-1.6875 5.7656v11.766h-8.1562v-25.531h8.1562v4.2031c1.0508-1.6758 2.2539-2.8945 3.6094-3.6562 1.3633-0.76953 2.9922-1.1562 4.8906-1.1562 0.26953 0 0.56641 0.011719 0.89062 0.03125 0.32031 0.023437 0.78516 0.074219 1.3906 0.15625z"/>
  </symbol>
  <symbol id="a" overflow="visible">
   <path d="m29.391-12.828v2.3281h-19.062c0.19531 1.9062 0.88281 3.3398 2.0625 4.2969 1.1875 0.96094 2.8438 1.4375 4.9688 1.4375 1.7188 0 3.4766-0.25391 5.2812-0.76562 1.8008-0.50781 3.6484-1.2812 5.5469-2.3125v6.2969c-1.9297 0.73047-3.8594 1.2773-5.7969 1.6406-1.9297 0.375-3.8555 0.5625-5.7812 0.5625-4.6172 0-8.2031-1.1719-10.766-3.5156s-3.8438-5.6328-3.8438-9.875c0-4.1641 1.2539-7.4414 3.7656-9.8281 2.5195-2.3828 5.9844-3.5781 10.391-3.5781 4.0078 0 7.2188 1.2109 9.625 3.625 2.4062 2.418 3.6094 5.6484 3.6094 9.6875zm-8.375-2.7188c0-1.5391-0.45312-2.7852-1.3594-3.7344-0.90625-0.95703-2.0898-1.4375-3.5469-1.4375-1.5859 0-2.8711 0.44922-3.8594 1.3438-0.98047 0.88672-1.5898 2.1641-1.8281 3.8281z"/>
  </symbol>
  <symbol id="b" overflow="visible">
   <path d="m15.359-11.484c-1.6992 0-2.9805 0.29297-3.8438 0.875-0.85547 0.57422-1.2812 1.4219-1.2812 2.5469 0 1.0312 0.34375 1.8398 1.0312 2.4219 0.69531 0.58594 1.6602 0.875 2.8906 0.875 1.5312 0 2.8164-0.54688 3.8594-1.6406 1.0508-1.1016 1.5781-2.4844 1.5781-4.1406v-0.9375zm12.469-3.0781v14.562h-8.2344v-3.7812c-1.0938 1.5547-2.3242 2.6836-3.6875 3.3906-1.3672 0.69531-3.0273 1.0469-4.9844 1.0469-2.6484 0-4.7969-0.76953-6.4531-2.3125-1.6484-1.5391-2.4688-3.5391-2.4688-6 0-2.9883 1.0312-5.1797 3.0938-6.5781 2.0625-1.4062 5.2969-2.1094 9.7031-2.1094h4.7969v-0.64062c0-1.2891-0.51172-2.2344-1.5312-2.8281-1.0117-0.60156-2.5938-0.90625-4.75-0.90625-1.75 0-3.3828 0.17969-4.8906 0.53125-1.5 0.34375-2.8984 0.86719-4.1875 1.5625v-6.2188c1.75-0.42578 3.5039-0.75 5.2656-0.96875 1.7578-0.21875 3.5234-0.32812 5.2969-0.32812 4.5938 0 7.9102 0.91406 9.9531 2.7344 2.0508 1.8125 3.0781 4.7617 3.0781 8.8438z"/>
  </symbol>
  <symbol id="g" overflow="visible">
   <path d="m12.828-32.766v7.2344h8.4062v5.8438h-8.4062v10.828c0 1.1797 0.23438 1.9805 0.70312 2.4062 0.47656 0.41797 1.4141 0.625 2.8125 0.625h4.1875v5.8281h-7c-3.2188 0-5.5-0.67188-6.8438-2.0156s-2.0156-3.625-2.0156-6.8438v-10.828h-4.0625v-5.8438h4.0625v-7.2344z"/>
  </symbol>
  <symbol id="f" overflow="visible">
   <path d="m21.281-21.781v-13.672h8.2031v35.453h-8.2031v-3.6875c-1.125 1.5-2.3672 2.6016-3.7188 3.2969-1.3438 0.69531-2.9062 1.0469-4.6875 1.0469-3.1484 0-5.7305-1.25-7.75-3.75-2.0234-2.5-3.0312-5.7109-3.0312-9.6406 0-3.9375 1.0078-7.1562 3.0312-9.6562 2.0195-2.5 4.6016-3.75 7.75-3.75 1.7578 0 3.3164 0.35547 4.6719 1.0625 1.3633 0.71094 2.6094 1.8086 3.7344 3.2969zm-5.375 16.516c1.75 0 3.082-0.63281 4-1.9062 0.91406-1.2812 1.375-3.1328 1.375-5.5625 0-2.4375-0.46094-4.2891-1.375-5.5625-0.91797-1.2812-2.25-1.9219-4-1.9219-1.7305 0-3.0586 0.64062-3.9844 1.9219-0.91797 1.2734-1.375 3.125-1.375 5.5625 0 2.4297 0.45703 4.2812 1.375 5.5625 0.92578 1.2734 2.2539 1.9062 3.9844 1.9062z"/>
  </symbol>
  <symbol id="e" overflow="visible">
   <path d="m17.5-5.2656c1.75 0 3.082-0.63281 4-1.9062 0.91406-1.2812 1.375-3.1328 1.375-5.5625 0-2.4375-0.46094-4.2891-1.375-5.5625-0.91797-1.2812-2.25-1.9219-4-1.9219s-3.0938 0.64844-4.0312 1.9375c-0.92969 1.2812-1.3906 3.1328-1.3906 5.5469 0 2.418 0.46094 4.2656 1.3906 5.5469 0.9375 1.2812 2.2812 1.9219 4.0312 1.9219zm-5.4219-16.516c1.125-1.4883 2.3672-2.5859 3.7344-3.2969 1.3633-0.70703 2.9375-1.0625 4.7188-1.0625 3.1445 0 5.7266 1.25 7.75 3.75 2.0195 2.5 3.0312 5.7188 3.0312 9.6562 0 3.9297-1.0117 7.1406-3.0312 9.6406-2.0234 2.5-4.6055 3.75-7.75 3.75-1.7812 0-3.3555-0.35156-4.7188-1.0469-1.3672-0.70703-2.6094-1.8047-3.7344-3.2969v3.6875h-8.1562v-35.453h8.1562z"/>
  </symbol>
  <symbol id="d" overflow="visible">
   <path d="m0.5625-25.531h8.1719l6.8594 17.328 5.8281-17.328h8.1562l-10.734 27.953c-1.0742 2.832-2.3281 4.8164-3.7656 5.9531-1.4375 1.1328-3.3359 1.7031-5.6875 1.7031h-4.7188v-5.3594h2.5469c1.3828 0 2.3906-0.22656 3.0156-0.67188 0.63281-0.4375 1.1289-1.2266 1.4844-2.3594l0.21875-0.70312z"/>
  </symbol>
  <symbol id="c" overflow="visible">
   <path d="m17.906-20.859c1.3828 0 2.4297-0.30078 3.1406-0.90625 0.71875-0.60156 1.0781-1.5 1.0781-2.6875 0-1.1641-0.35938-2.0547-1.0781-2.6719-0.71094-0.61328-1.7578-0.92188-3.1406-0.92188h-4.8438v7.1875zm0.29688 14.891c1.7695 0 3.0977-0.36719 3.9844-1.1094 0.88281-0.75 1.3281-1.875 1.3281-3.375 0-1.4766-0.44531-2.582-1.3281-3.3125-0.875-0.73828-2.2031-1.1094-3.9844-1.1094h-5.1406v8.9062zm8.1562-12.234c1.8828 0.54297 3.3438 1.5547 4.375 3.0312 1.0391 1.4688 1.5625 3.2773 1.5625 5.4219 0 3.2812-1.1094 5.7305-3.3281 7.3438-2.2188 1.6055-5.5938 2.4062-10.125 2.4062h-14.562v-34.031h13.172c4.7266 0 8.1484 0.71875 10.266 2.1562 2.125 1.4297 3.1875 3.7148 3.1875 6.8594 0 1.6562-0.39062 3.0703-1.1719 4.2344-0.77344 1.1562-1.8984 2.0156-3.375 2.5781z"/>
  </symbol>
  <symbol id="l" overflow="visible">
   <path d="m29.578-15.547v15.547h-8.2031v-11.891c0-2.207-0.054688-3.7266-0.15625-4.5625-0.09375-0.83203-0.26172-1.4453-0.5-1.8438-0.32422-0.53125-0.76172-0.94141-1.3125-1.2344-0.54297-0.30078-1.1641-0.45312-1.8594-0.45312-1.6992 0-3.0391 0.65625-4.0156 1.9688-0.96875 1.3125-1.4531 3.1328-1.4531 5.4531v12.562h-8.1562v-25.531h8.1562v3.75c1.2266-1.4883 2.5352-2.5859 3.9219-3.2969 1.3828-0.70703 2.9102-1.0625 4.5781-1.0625 2.9453 0 5.1797 0.90625 6.7031 2.7188 1.5312 1.8047 2.2969 4.4297 2.2969 7.875z"/>
  </symbol>
  <symbol id="k" overflow="visible">
   <path d="m13.062-27.391v20.766h3.1406c3.582 0 6.3164-0.89062 8.2031-2.6719 1.8945-1.7812 2.8438-4.3633 2.8438-7.75 0-3.375-0.94531-5.9414-2.8281-7.7031-1.875-1.7578-4.6172-2.6406-8.2188-2.6406zm-8.7812-6.6406h9.25c5.1641 0 9.0156 0.37109 11.547 1.1094 2.5312 0.74219 4.6953 1.9922 6.5 3.75 1.6016 1.5312 2.7891 3.3047 3.5625 5.3125 0.76953 2 1.1562 4.2734 1.1562 6.8125 0 2.5742-0.38672 4.8672-1.1562 6.875-0.77344 2.0117-1.9609 3.7812-3.5625 5.3125-1.8242 1.7734-4.0117 3.0273-6.5625 3.7656-2.5547 0.73047-6.3828 1.0938-11.484 1.0938h-9.25z"/>
  </symbol>
  <symbol id="j" overflow="visible">
   <path d="m0.70312-25.531h8.1562l6.3594 17.641 6.3438-17.641h8.1719l-10.047 25.531h-8.9531z"/>
  </symbol>
  <symbol id="i" overflow="visible">
   <path d="m3.9219-25.531h8.1562v25.531h-8.1562zm0-9.9219h8.1562v6.6406h-8.1562z"/>
  </symbol>
 </defs>
 <g>
  <path d="m508.67 168h-317.34c-5.1523 0-9.332-4.1914-9.332-9.332 0-5.1445 4.1797-9.3359 9.332-9.3359h317.34c5.1523 0 9.332 4.1914 9.332 9.3359 0 5.1406-4.1797 9.332-9.332 9.332m28-9.332c0-15.438-12.562-28-28-28h-149.34v-69.859l61.426-43.879c4.1875-2.9961 5.168-8.8281 2.1641-13.02-2.9961-4.1992-8.8203-5.1602-13.012-2.1758l-65.332 46.668c-0.21484 0.14844-0.31641 0.38281-0.51562 0.55078-0.49219 0.42188-0.90234 0.88672-1.3047 1.3984-0.35547 0.46094-0.69922 0.90625-0.95312 1.4219-0.26953 0.51953-0.44922 1.0625-0.61719 1.6406-0.17578 0.61719-0.32422 1.2031-0.37109 1.8398-0.019531 0.26172-0.14844 0.48438-0.14844 0.74609v74.668h-149.34c-15.438 0-28 12.562-28 28 0 12.422 8.1875 22.855 19.406 26.504l6.375 63.711 17.535 14.617c9.3164 9.2656 19.844 13.59 30.949 13.129 10.996-0.46484 22.047-5.7305 31.137-14.809 12.34-12.352 27.945-19.152 43.934-19.152s31.594 6.8008 43.93 19.152c17.902 17.898 43.57 17.898 61.469 0 12.305-12.312 27.879-18.742 44.336-18.016 15.668 0.66406 31.137 7.8594 43.531 20.262l3.125 3.1289 8.2031-82.023c11.219-3.6484 19.406-14.082 19.406-26.504" fill-rule="evenodd"/>
  <path d="m405.27 366.94c-1.8359-1.957-4.3281-2.957-6.8203-2.957-2.2969 0-4.582 0.83203-6.375 2.5117l-20.461 19.113c-3.7578 3.5078-3.957 9.4375-0.44531 13.199l19.113 20.449c3.5195 3.7617 9.4375 3.9648 13.199 0.45703l20.457-19.125c3.7539-3.5078 3.957-9.4258 0.44922-13.188z" fill-rule="evenodd"/>
  <path d="m339.93 439.41c-1.8398-1.9609-4.332-2.9609-6.8242-2.9609-2.2969 0-4.582 0.83203-6.375 2.5117l-20.457 19.117c-3.7617 3.5078-3.957 9.4336-0.44922 13.195l19.113 20.449c3.5195 3.7695 9.4375 3.9688 13.199 0.45703l20.457-19.125c3.7539-3.5078 3.957-9.4258 0.44922-13.188z" fill-rule="evenodd"/>
  <path d="m319.46 373.04 20.461-19.117c3.7617-3.5195 3.957-9.4336 0.44531-13.195l-19.113-20.461c-1.8398-1.9609-4.3203-2.957-6.8242-2.957-2.2852 0-4.5703 0.82812-6.3711 2.5117l-20.461 19.113c-3.75 3.5195-3.957 9.4375-0.44922 13.195l19.117 20.461c3.5273 3.7617 9.4336 3.9492 13.195 0.44922" fill-rule="evenodd"/>
  <path d="m436.68 414.23-20.457 19.113c-5.2188 4.8711-11.957 7.5234-19.09 7.5234-0.32422 0-0.66016 0-0.98828-0.019531-7.4844-0.25-14.418-3.3984-19.508-8.8477l-19.105-20.457c-10.547-11.277-9.9492-29.027 1.3359-39.566l20.461-19.125c5.4492-5.0938 12.625-7.8398 20.074-7.4922 7.4844 0.25 14.422 3.3867 19.508 8.8398l19.113 20.457c10.539 11.285 9.9414 29.035-1.3438 39.574m-12.012 89.777c-5.1602 0-9.332-4.1836-9.332-9.3359 0-5.1602 4.1719-9.332 9.332-9.332 5.1602 0 9.332 4.1719 9.332 9.332 0 5.1523-4.1719 9.3359-9.332 9.3359m-53.332-17.305-20.457 19.113c-5.2188 4.8711-11.957 7.5234-19.086 7.5234-0.32812 0-0.66406-0.007813-0.99219-0.019532-7.4844-0.26172-14.418-3.3945-19.504-8.8477l-19.105-20.457c-10.547-11.277-9.9492-29.035 1.332-39.574l20.461-19.113c5.4492-5.0977 12.637-7.8398 20.074-7.5039 7.4883 0.26172 14.422 3.3945 19.508 8.8477l19.113 20.457c10.539 11.273 9.9414 29.035-1.3438 39.574m-96.477-161.39 20.457-19.125c5.4531-5.0977 12.648-7.832 20.078-7.4961 7.4844 0.25391 14.418 3.3867 19.504 8.8398l19.117 20.457c10.535 11.285 9.9375 29.035-1.3438 39.574l-20.461 19.113c-5.2148 4.875-11.957 7.5234-19.086 7.5234-0.32812 0-0.66406 0-0.98828-0.019531-7.4883-0.25-14.422-3.3945-19.508-8.8477l-19.105-20.457c-10.547-11.273-9.9492-29.027 1.3359-39.562m-18.191 94.695c-5.1602 0-9.332-4.1836-9.332-9.3359 0-5.1602 4.1719-9.332 9.332-9.332 5.1602 0 9.332 4.1719 9.332 9.332 0 5.1523-4.1719 9.3359-9.332 9.3359m204.93-157.56c-11.125-0.49219-21.633 3.875-30.332 12.562-12.34 12.359-27.941 19.152-43.93 19.152-15.988 0-31.594-6.793-43.934-19.152-17.902-17.891-43.566-17.891-61.469 0-12.395 12.406-27.859 19.609-43.531 20.273-16.363 0.74609-32.031-5.7031-44.332-18.012l-2.3164-1.9336 24.352 243.54c2.3516 23.445 21.887 41.133 45.445 41.133h176.89c23.566 0 43.102-17.688 45.453-41.133l22.762-227.68-13.926-13.926c-9.0898-9.0938-20.141-14.348-31.137-14.824" fill-rule="evenodd"/>
  <use x="163.332031" y="700" xlink:href="#m"/>
  <use x="197.582031" y="700" xlink:href="#h"/>
  <use x="220.59375" y="700" xlink:href="#a"/>
  <use x="252.246094" y="700" xlink:href="#b"/>
  <use x="283.738281" y="700" xlink:href="#g"/>
  <use x="306.046875" y="700" xlink:href="#a"/>
  <use x="337.695312" y="700" xlink:href="#f"/>
  <use x="387.347656" y="700" xlink:href="#e"/>
  <use x="420.75" y="700" xlink:href="#d"/>
  <use x="467.417969" y="700" xlink:href="#c"/>
  <use x="502.988281" y="700" xlink:href="#a"/>
  <use x="534.640625" y="700" xlink:href="#l"/>
  <use x="584.109375" y="700" xlink:href="#k"/>
  <use x="622.84375" y="700" xlink:href="#b"/>
  <use x="654.335938" y="700" xlink:href="#j"/>
  <use x="684.757812" y="700" xlink:href="#i"/>
 </g>
</svg>
