<?xml version="1.0" encoding="UTF-8"?>
<svg width="700pt" height="700pt" version="1.1" viewBox="0 0 700 700" xmlns="http://www.w3.org/2000/svg" xmlns:xlink="http://www.w3.org/1999/xlink">
 <defs>
  <symbol id="h" overflow="visible">
   <path d="m18.766-1.125c-0.96875 0.5-1.9805 0.875-3.0312 1.125-1.043 0.25781-2.1367 0.39062-3.2812 0.39062-3.3984 0-6.0898-0.94531-8.0781-2.8438-1.9922-1.9062-2.9844-4.4844-2.9844-7.7344 0-3.2578 0.99219-5.8359 2.9844-7.7344 1.9883-1.9062 4.6797-2.8594 8.0781-2.8594 1.1445 0 2.2383 0.13281 3.2812 0.39062 1.0508 0.25 2.0625 0.625 3.0312 1.125v4.2188c-0.98047-0.65625-1.9453-1.1406-2.8906-1.4531-0.94922-0.3125-1.9492-0.46875-3-0.46875-1.875 0-3.3516 0.60547-4.4219 1.8125-1.0742 1.1992-1.6094 2.8555-1.6094 4.9688 0 2.1055 0.53516 3.7617 1.6094 4.9688 1.0703 1.1992 2.5469 1.7969 4.4219 1.7969 1.0508 0 2.0508-0.14844 3-0.45312 0.94531-0.3125 1.9102-0.80078 2.8906-1.4688z"/>
  </symbol>
  <symbol id="d" overflow="visible">
   <path d="m13.734-11.141c-0.4375-0.19531-0.87109-0.34375-1.2969-0.4375-0.41797-0.10156-0.83984-0.15625-1.2656-0.15625-1.2617 0-2.2305 0.40625-2.9062 1.2188-0.67969 0.80469-1.0156 1.9531-1.0156 3.4531v7.0625h-4.8906v-15.312h4.8906v2.5156c0.625-1 1.3438-1.7266 2.1562-2.1875 0.82031-0.46875 1.8008-0.70312 2.9375-0.70312 0.16406 0 0.34375 0.011719 0.53125 0.03125 0.19531 0.011719 0.47656 0.039062 0.84375 0.078125z"/>
  </symbol>
  <symbol id="a" overflow="visible">
   <path d="m17.641-7.7031v1.4062h-11.453c0.125 1.1484 0.53906 2.0078 1.25 2.5781 0.70703 0.57422 1.7031 0.85938 2.9844 0.85938 1.0312 0 2.082-0.14844 3.1562-0.45312 1.082-0.3125 2.1914-0.77344 3.3281-1.3906v3.7656c-1.1562 0.4375-2.3125 0.76562-3.4688 0.98438-1.1562 0.22656-2.3125 0.34375-3.4688 0.34375-2.7734 0-4.9297-0.70312-6.4688-2.1094-1.5312-1.4062-2.2969-3.3789-2.2969-5.9219 0-2.5 0.75391-4.4609 2.2656-5.8906 1.5078-1.4375 3.582-2.1562 6.2188-2.1562 2.4062 0 4.332 0.73047 5.7812 2.1875 1.4453 1.4492 2.1719 3.3828 2.1719 5.7969zm-5.0312-1.625c0-0.92578-0.27344-1.6719-0.8125-2.2344-0.54297-0.57031-1.25-0.85938-2.125-0.85938-0.94922 0-1.7188 0.26562-2.3125 0.79688s-0.96484 1.2969-1.1094 2.2969z"/>
  </symbol>
  <symbol id="c" overflow="visible">
   <path d="m9.2188-6.8906c-1.0234 0-1.793 0.17188-2.3125 0.51562-0.51172 0.34375-0.76562 0.85547-0.76562 1.5312 0 0.625 0.20703 1.1172 0.625 1.4688 0.41406 0.34375 0.98828 0.51562 1.7188 0.51562 0.92578 0 1.7031-0.32812 2.3281-0.98438 0.63281-0.66406 0.95312-1.4922 0.95312-2.4844v-0.5625zm7.4688-1.8438v8.7344h-4.9219v-2.2656c-0.65625 0.92969-1.3984 1.6055-2.2188 2.0312-0.82422 0.41406-1.8242 0.625-3 0.625-1.5859 0-2.8711-0.45703-3.8594-1.375-0.99219-0.92578-1.4844-2.1289-1.4844-3.6094 0-1.7891 0.61328-3.1016 1.8438-3.9375 1.2383-0.84375 3.1797-1.2656 5.8281-1.2656h2.8906v-0.39062c0-0.76953-0.30859-1.332-0.92188-1.6875-0.61719-0.36328-1.5703-0.54688-2.8594-0.54688-1.0547 0-2.0312 0.10547-2.9375 0.3125-0.89844 0.21094-1.7305 0.52344-2.5 0.9375v-3.7344c1.0391-0.25 2.0859-0.44141 3.1406-0.57812 1.0625-0.13281 2.125-0.20312 3.1875-0.20312 2.7578 0 4.75 0.54688 5.9688 1.6406 1.2266 1.0859 1.8438 2.8555 1.8438 5.3125z"/>
  </symbol>
  <symbol id="b" overflow="visible">
   <path d="m7.7031-19.656v4.3438h5.0469v3.5h-5.0469v6.5c0 0.71094 0.14062 1.1875 0.42188 1.4375s0.83594 0.375 1.6719 0.375h2.5156v3.5h-4.1875c-1.9375 0-3.3125-0.39844-4.125-1.2031-0.80469-0.8125-1.2031-2.1797-1.2031-4.1094v-6.5h-2.4219v-3.5h2.4219v-4.3438z"/>
  </symbol>
  <symbol id="k" overflow="visible">
   <path d="m12.766-13.078v-8.2031h4.9219v21.281h-4.9219v-2.2188c-0.66797 0.90625-1.4062 1.5703-2.2188 1.9844s-1.7578 0.625-2.8281 0.625c-1.8867 0-3.4336-0.75-4.6406-2.25-1.2109-1.5-1.8125-3.4258-1.8125-5.7812 0-2.3633 0.60156-4.2969 1.8125-5.7969 1.207-1.5 2.7539-2.25 4.6406-2.25 1.0625 0 2 0.21484 2.8125 0.64062 0.82031 0.42969 1.5664 1.0859 2.2344 1.9688zm-3.2188 9.9219c1.0391 0 1.8359-0.37891 2.3906-1.1406 0.55078-0.76953 0.82812-1.8828 0.82812-3.3438 0-1.457-0.27734-2.5664-0.82812-3.3281-0.55469-0.76953-1.3516-1.1562-2.3906-1.1562-1.043 0-1.8398 0.38672-2.3906 1.1562-0.55469 0.76172-0.82812 1.8711-0.82812 3.3281 0 1.4609 0.27344 2.5742 0.82812 3.3438 0.55078 0.76172 1.3477 1.1406 2.3906 1.1406z"/>
  </symbol>
  <symbol id="j" overflow="visible">
   <path d="m10.5-3.1562c1.0508 0 1.8516-0.37891 2.4062-1.1406 0.55078-0.76953 0.82812-1.8828 0.82812-3.3438 0-1.457-0.27734-2.5664-0.82812-3.3281-0.55469-0.76953-1.3555-1.1562-2.4062-1.1562-1.0547 0-1.8594 0.38672-2.4219 1.1562-0.55469 0.77344-0.82812 1.8828-0.82812 3.3281 0 1.4492 0.27344 2.5586 0.82812 3.3281 0.5625 0.77344 1.3672 1.1562 2.4219 1.1562zm-3.25-9.9219c0.67578-0.88281 1.4219-1.5391 2.2344-1.9688 0.82031-0.42578 1.7656-0.64062 2.8281-0.64062 1.8945 0 3.4453 0.75 4.6562 2.25 1.207 1.5 1.8125 3.4336 1.8125 5.7969 0 2.3555-0.60547 4.2812-1.8125 5.7812-1.2109 1.5-2.7617 2.25-4.6562 2.25-1.0625 0-2.0078-0.21094-2.8281-0.625-0.8125-0.42578-1.5586-1.0859-2.2344-1.9844v2.2188h-4.8906v-21.281h4.8906z"/>
  </symbol>
  <symbol id="i" overflow="visible">
   <path d="m0.34375-15.312h4.8906l4.125 10.391 3.5-10.391h4.8906l-6.4375 16.766c-0.64844 1.6953-1.4023 2.8828-2.2656 3.5625-0.86719 0.6875-2 1.0312-3.4062 1.0312h-2.8438v-3.2188h1.5312c0.83203 0 1.4375-0.13672 1.8125-0.40625 0.38281-0.26172 0.67969-0.73047 0.89062-1.4062l0.14062-0.42188z"/>
  </symbol>
  <symbol id="f" overflow="visible">
   <path d="m2.3594-15.312h4.8906v15.312h-4.8906zm0-5.9688h4.8906v4h-4.8906z"/>
  </symbol>
  <symbol id="u" overflow="visible">
   <path d="m0.42188-15.312h4.8906l3.8281 10.578 3.7969-10.578h4.9062l-6.0312 15.312h-5.375z"/>
  </symbol>
  <symbol id="t" overflow="visible">
   <path d="m2.5781-20.406h6.6875l4.6562 10.922 4.6719-10.922h6.6875v20.406h-4.9844v-14.938l-4.7031 11.016h-3.3281l-4.7031-11.016v14.938h-4.9844z"/>
  </symbol>
  <symbol id="g" overflow="visible">
   <path d="m17.75-9.3281v9.3281h-4.9219v-7.1406c0-1.3203-0.03125-2.2344-0.09375-2.7344s-0.16797-0.86719-0.3125-1.1094c-0.1875-0.3125-0.44922-0.55469-0.78125-0.73438-0.32422-0.17578-0.69531-0.26562-1.1094-0.26562-1.0234 0-1.8242 0.39844-2.4062 1.1875-0.58594 0.78125-0.875 1.8711-0.875 3.2656v7.5312h-4.8906v-15.312h4.8906v2.2344c0.73828-0.88281 1.5195-1.5391 2.3438-1.9688 0.83203-0.42578 1.75-0.64062 2.75-0.64062 1.7695 0 3.1133 0.54688 4.0312 1.6406 0.91406 1.0859 1.375 2.6562 1.375 4.7188z"/>
  </symbol>
  <symbol id="s" overflow="visible">
   <path d="m12.422-21.281v3.2188h-2.7031c-0.6875 0-1.1719 0.125-1.4531 0.375-0.27344 0.25-0.40625 0.6875-0.40625 1.3125v1.0625h4.1875v3.5h-4.1875v11.812h-4.8906v-11.812h-2.4375v-3.5h2.4375v-1.0625c0-1.6641 0.46094-2.8984 1.3906-3.7031 0.92578-0.80078 2.3672-1.2031 4.3281-1.2031z"/>
  </symbol>
  <symbol id="e" overflow="visible">
   <path d="m9.6406-12.188c-1.0859 0-1.9141 0.39062-2.4844 1.1719-0.57422 0.78125-0.85938 1.9062-0.85938 3.375s0.28516 2.5938 0.85938 3.375c0.57031 0.77344 1.3984 1.1562 2.4844 1.1562 1.0625 0 1.875-0.38281 2.4375-1.1562 0.57031-0.78125 0.85938-1.9062 0.85938-3.375s-0.28906-2.5938-0.85938-3.375c-0.5625-0.78125-1.375-1.1719-2.4375-1.1719zm0-3.5c2.6328 0 4.6914 0.71484 6.1719 2.1406 1.4766 1.418 2.2188 3.3867 2.2188 5.9062 0 2.5117-0.74219 4.4805-2.2188 5.9062-1.4805 1.418-3.5391 2.125-6.1719 2.125-2.6484 0-4.7148-0.70703-6.2031-2.125-1.4922-1.4258-2.2344-3.3945-2.2344-5.9062 0-2.5195 0.74219-4.4883 2.2344-5.9062 1.4883-1.4258 3.5547-2.1406 6.2031-2.1406z"/>
  </symbol>
  <symbol id="r" overflow="visible">
   <path d="m16.547-12.766c0.61328-0.94531 1.3477-1.6719 2.2031-2.1719 0.85156-0.5 1.7891-0.75 2.8125-0.75 1.7578 0 3.0977 0.54688 4.0156 1.6406 0.92578 1.0859 1.3906 2.6562 1.3906 4.7188v9.3281h-4.9219v-7.9844-0.35938c0.007813-0.13281 0.015625-0.32031 0.015625-0.5625 0-1.082-0.16406-1.8633-0.48438-2.3438-0.3125-0.48828-0.82422-0.73438-1.5312-0.73438-0.92969 0-1.6484 0.38672-2.1562 1.1562-0.51172 0.76172-0.77344 1.8672-0.78125 3.3125v7.5156h-4.9219v-7.9844c0-1.6953-0.14844-2.7852-0.4375-3.2656-0.29297-0.48828-0.8125-0.73438-1.5625-0.73438-0.9375 0-1.6641 0.38672-2.1719 1.1562-0.51172 0.76172-0.76562 1.8594-0.76562 3.2969v7.5312h-4.9219v-15.312h4.9219v2.2344c0.60156-0.86328 1.2891-1.5156 2.0625-1.9531 0.78125-0.4375 1.6406-0.65625 2.5781-0.65625 1.0625 0 2 0.25781 2.8125 0.76562 0.8125 0.51172 1.4258 1.2305 1.8438 2.1562z"/>
  </symbol>
  <symbol id="q" overflow="visible">
   <path d="m17.75-9.3281v9.3281h-4.9219v-7.1094c0-1.3438-0.03125-2.2656-0.09375-2.7656s-0.16797-0.86719-0.3125-1.1094c-0.1875-0.3125-0.44922-0.55469-0.78125-0.73438-0.32422-0.17578-0.69531-0.26562-1.1094-0.26562-1.0234 0-1.8242 0.39844-2.4062 1.1875-0.58594 0.78125-0.875 1.8711-0.875 3.2656v7.5312h-4.8906v-21.281h4.8906v8.2031c0.73828-0.88281 1.5195-1.5391 2.3438-1.9688 0.83203-0.42578 1.75-0.64062 2.75-0.64062 1.7695 0 3.1133 0.54688 4.0312 1.6406 0.91406 1.0859 1.375 2.6562 1.375 4.7188z"/>
  </symbol>
  <symbol id="p" overflow="visible">
   <path d="m2.5781-20.406h5.875l7.4219 14v-14h4.9844v20.406h-5.875l-7.4219-14v14h-4.9844z"/>
  </symbol>
  <symbol id="o" overflow="visible">
   <path d="m2.1875-5.9688v-9.3438h4.9219v1.5312c0 0.83594-0.007813 1.875-0.015625 3.125-0.011719 1.25-0.015625 2.0859-0.015625 2.5 0 1.2422 0.03125 2.1328 0.09375 2.6719 0.070313 0.54297 0.17969 0.93359 0.32812 1.1719 0.20703 0.32422 0.47266 0.57422 0.79688 0.75 0.32031 0.16797 0.69141 0.25 1.1094 0.25 1.0195 0 1.8203-0.39062 2.4062-1.1719 0.58203-0.78125 0.875-1.8672 0.875-3.2656v-7.5625h4.8906v15.312h-4.8906v-2.2188c-0.74219 0.89844-1.5234 1.5586-2.3438 1.9844-0.82422 0.41406-1.7344 0.625-2.7344 0.625-1.7617 0-3.1055-0.53906-4.0312-1.625-0.92969-1.082-1.3906-2.6602-1.3906-4.7344z"/>
  </symbol>
  <symbol id="n" overflow="visible">
   <path d="m2.5781-20.406h8.7344c2.5938 0 4.582 0.57812 5.9688 1.7344 1.3945 1.1484 2.0938 2.7891 2.0938 4.9219 0 2.1367-0.69922 3.7812-2.0938 4.9375-1.3867 1.1562-3.375 1.7344-5.9688 1.7344h-3.4844v7.0781h-5.25zm5.25 3.8125v5.7031h2.9219c1.0195 0 1.8047-0.25 2.3594-0.75 0.5625-0.5 0.84375-1.2031 0.84375-2.1094 0-0.91406-0.28125-1.6172-0.84375-2.1094-0.55469-0.48828-1.3398-0.73438-2.3594-0.73438z"/>
  </symbol>
  <symbol id="m" overflow="visible">
   <path d="m2.3594-15.312h4.8906v15.031c0 2.0508-0.49609 3.6172-1.4844 4.7031-0.98047 1.082-2.4062 1.625-4.2812 1.625h-2.4219v-3.2188h0.85938c0.92578 0 1.5625-0.21094 1.9062-0.625 0.35156-0.41797 0.53125-1.2461 0.53125-2.4844zm0-5.9688h4.8906v4h-4.8906z"/>
  </symbol>
  <symbol id="l" overflow="visible">
   <path d="m14.719-14.828v3.9844c-0.65625-0.45703-1.3242-0.79688-2-1.0156-0.66797-0.21875-1.3594-0.32812-2.0781-0.32812-1.3672 0-2.4336 0.40234-3.2031 1.2031-0.76172 0.79297-1.1406 1.9062-1.1406 3.3438 0 1.4297 0.37891 2.543 1.1406 3.3438 0.76953 0.79297 1.8359 1.1875 3.2031 1.1875 0.75781 0 1.4844-0.10938 2.1719-0.32812 0.6875-0.22656 1.3203-0.56641 1.9062-1.0156v4c-0.76172 0.28125-1.5391 0.48828-2.3281 0.625-0.78125 0.14453-1.5742 0.21875-2.375 0.21875-2.7617 0-4.9219-0.70703-6.4844-2.125-1.5547-1.4141-2.3281-3.3828-2.3281-5.9062 0-2.5312 0.77344-4.5039 2.3281-5.9219 1.5625-1.4141 3.7227-2.125 6.4844-2.125 0.80078 0 1.5938 0.074219 2.375 0.21875 0.78125 0.13672 1.5547 0.35156 2.3281 0.64062z"/>
  </symbol>
 </defs>
 <g>
  <path d="m491.83 446.99c26.449-10.977 45.148-25.121 52.812-41.098h32.805v-11.199h-29.355c0.25391-1.7305 0.42578-3.4648 0.42578-5.2305 0-22.262-20.422-42.695-57.527-57.812v-93.727c0-29.52-49.633-53.223-116.58-57.77v-64.883c0-4.8945-3.2812-9.0312-8.457-11.512 0.25781-0.48047 0.53906-0.92969 0.76172-1.4609 3.5664-8.5469 0.98438-20.223-7.668-34.699l-4.0938-6.8555-5.0469 6.1836c-1.4375 1.7578-13.922 17.574-10.488 31.41 0.42969 1.7344 1.2266 3.7305 2.5547 5.7305-4.832 2.5078-7.9023 6.4961-7.9023 11.199v64.461c-70.23 3.3984-123.08 27.719-123.08 58.191v93.711c-37.102 15.125-57.527 35.594-57.527 57.824 0 1.7578 0.17187 3.5 0.42969 5.2305h-35.637v11.199h39.082c7.668 15.977 26.363 30.121 52.812 41.098h-97.492v11.199h131.41c30.645 7.9922 67.223 12.594 106.92 12.594 39.699 0 76.277-4.6016 106.92-12.594h130.98v-11.199h-97.059zm2.7891-61.637c0 21.352-58.984 45.152-143.63 45.152-84.645 0-143.63-23.793-143.63-45.152 0-5.4922 3.8906-10.434 8.3828-14.32 15.812 25.137 69.562 43.176 135.25 43.176 65.684 0 119.44-18.039 135.25-43.176 4.4883 3.8906 8.3828 8.8281 8.3828 14.32zm-272.43-65.223c2.8828 2.8438 6.293 5.5664 10.16 8.1484v45.086c-6.5703-5.7305-10.16-11.801-10.16-17.773zm34.922-38.375v47.047c-5.0273-2.0312-9.5469-4.2109-13.562-6.4922v-46.418c4.1875 2.0859 8.7109 4.0469 13.562 5.8633zm117.39 51.898v9.6992c-6.6016 0.46484-13.324 0.69922-20.105 0.76563v-47.629c5.8359-0.054687 11.688-0.23047 17.484-0.58203v28.992c0.003907 3.2344 0.98047 6.2305 2.6211 8.7539zm72.594 53.004v-46.859c4.0273-1.5664 7.8242-3.2188 11.34-4.9688v46.312c-3.3945 1.9258-7.2188 3.7578-11.34 5.5156zm-19.211-16.457v-24.188c2.75-0.73828 5.4219-1.5117 8.0117-2.3203v47.242c-4.3125 1.4375-8.9648 2.7422-13.816 3.9688v-11.781c3.5391-3.1992 5.8047-7.7852 5.8047-12.922zm19.211-42.508v-46.738c4.0391-1.5742 7.8164-3.2422 11.34-4.9961v46.172c-3.4219 1.9414-7.2188 3.8008-11.34 5.5625zm-11.199 4.2266c-2.5859 0.86719-5.2422 1.7148-8.0117 2.4961v-47.215c2.7539-0.73828 5.4141-1.5234 8.0117-2.3359zm-25.016 65.508c-7.8516 1.5625-16.262 2.832-25.176 3.7695v-47.594c2.418-0.25391 4.793-0.55469 7.1797-0.85156v17.457c0 9.6484 7.8516 17.5 17.5 17.5 0.16797 0 0.33203-0.042969 0.5-0.050781zm-142.57-5.7891v-47.281c5.1055 1.5391 10.465 2.9453 16.078 4.1953v47.453c-5.6953-1.3203-11.07-2.7734-16.078-4.3672zm27.277-40.871c5.7227 1.0117 11.672 1.8555 17.781 2.543v47.582c-6.1875-0.70703-12.113-1.5742-17.781-2.6055zm28.98 3.5977c6.0703 0.46875 12.285 0.78906 18.633 0.92969v47.566c-6.3906-0.14062-12.641-0.40234-18.633-0.86719zm29.832 0.95703c6.7812-0.066406 13.496-0.30078 20.105-0.75v47.594c-6.4805 0.44141-13.184 0.71094-20.105 0.78516zm38.484-13.867c-2.3867 0.3125-4.7617 0.63672-7.1797 0.90234v-1.5781c0.75 0.11328 1.5 0.23047 2.2773 0.23047 1.707 0 3.3555-0.26953 4.8984-0.76172zm-49.684 2.5781c-6.3906-0.14062-12.641-0.40234-18.633-0.86719v-47.629c6.0703 0.46875 12.285 0.78906 18.633 0.92969zm-29.832-1.9727c-6.1875-0.70703-12.113-1.5742-17.781-2.6055v-47.523c5.7227 1.0117 11.672 1.8555 17.781 2.543zm-28.98-4.8945c-5.6953-1.3086-11.07-2.7656-16.078-4.3633v-47.281c5.1055 1.5391 10.465 2.9453 16.078 4.1953zm-27.277 3.4219v47.047c-5.0273-2.0312-9.5469-4.2109-13.562-6.4922v-46.418c4.1875 2.0898 8.7109 4.0508 13.562 5.8633zm212.52 32.766v-44.969c3.8906-2.6055 7.2812-5.3359 10.152-8.1875v35.391c0.003907 5.9688-3.5859 12.039-10.152 17.766zm0-58.957v-44.832c3.9102-2.6094 7.2734-5.3633 10.152-8.2227v35.422c0.003907 5.9688-3.625 11.984-10.152 17.633zm-106.4-96.633c-0.35156 0.84375-3.5391 2.9844-8.9922 2.9844-5.4531 0-8.6445-2.1328-8.9727-2.8008v-90.09c2.6836 0.88672 5.6914 1.418 8.9727 1.418s6.2891-0.53906 8.9766-1.4219zm-9.918-105.2 0.46094 0.19531 0.95703-0.23438c5.125 0.13281 8.1641 2.1055 8.5 2.5703-0.35156 0.84375-3.5391 2.9844-8.9922 2.9844-5.4102 0-8.5742-2.0938-8.9727-2.5938v-0.050781c0.375-0.80859 3.2461-2.6289 8.0469-2.8711zm0.41406-31.09c4.1445 9.1719 3.6055 14.051 2.7148 16.336-0.54687 1.3984-1.3945 2.2969-2.1406 2.8516-2.8789-1.7188-3.6719-3.625-4.0195-5-1.0312-4.1406 1.0156-9.6445 3.4453-14.188zm-19.664 109.54v26.938c0 7.9805 8.668 14 20.172 14 11.504 0 20.172-6.0195 20.172-14v-26.551c63.863 4.375 105.38 26.047 105.38 46.531 0 15.152-23.102 30.66-58.852 39.508l-4.2578 1.0547v91.723c0 3.4727-2.8281 6.3008-6.3008 6.3008s-6.3008-2.8281-6.3008-6.3008v-45.297h-11.199c0 2.6992-2.1992 4.8984-4.8984 4.8984s-4.8984-2.1992-4.8984-4.8984v-41.043l-6.0352 0.46875c-8.5898 0.67578-17.359 1.0195-26.059 1.0195-77.043 0-128.8-24.523-128.8-47.426 0.003906-21.18 44.344-43.633 111.88-46.926zm-111.88 70.285c2.8828 2.8438 6.293 5.5664 10.16 8.1523v45.086c-6.5703-5.7305-10.16-11.801-10.16-17.773zm-57.535 128.17c0-16.367 16.789-32.828 46.328-45.695v11.82c0 1.5391 0.17969 3.0586 0.44141 4.5625-10.102 7.6367-15.277 16.094-15.277 25.199 0 36.602 79.773 56.352 154.83 56.352 75.059 0 154.83-19.746 154.83-56.352 0-6.3672-2.8555-15.695-15.281-25.16 0.27344-1.5195 0.45312-3.0508 0.45312-4.6016l0.003907-11.805c29.547 12.875 46.328 29.281 46.328 45.68 0 38.008-85.328 70.117-186.33 70.117-101 0-186.32-32.113-186.32-70.117z"/>
  <path d="m214.08 482.45h213.73v11.199h-213.73z"/>
  <path d="m441.58 482.45h31.555v11.199h-31.555z"/>
  <path d="m278.28 237.92-4.7891 5.1016c-2.1172 2.2578-2.0039 5.8008 0.24609 7.918 1.082 1.0117 2.457 1.5195 3.8359 1.5195 1.4883 0 2.9805-0.59375 4.082-1.7656l4.7891-5.1016c2.1172-2.2578 2.0039-5.8008-0.24609-7.918-2.25-2.1172-5.8008-2.0117-7.918 0.24609z"/>
  <path d="m457.26 249.91c1.4961 0 2.9805-0.59375 4.082-1.7656l4.7891-5.1016c2.1172-2.2578 2-5.8008-0.25391-7.918-2.2578-2.1172-5.8008-2.0039-7.918 0.24609l-4.7891 5.1016c-2.1172 2.2578-2 5.8008 0.25391 7.918 1.0859 1.0156 2.4648 1.5195 3.8359 1.5195z"/>
  <path d="m305.13 270.3c1.4844 0 2.9688-0.58203 4.0703-1.7539l4.8047-5.0859c2.1211-2.25 2.0234-5.7969-0.23047-7.918-2.2383-2.1172-5.7891-2.0273-7.918 0.23047l-4.8047 5.0898c-2.1211 2.2461-2.0234 5.7891 0.23047 7.918 1.0859 1.0117 2.4688 1.5195 3.8477 1.5195z"/>
  <path d="m342.37 255.95h0.17969c3.0977-0.09375 5.5156-2.6836 5.4219-5.7734l-0.21094-6.9922c-0.10156-3.0898-2.5859-5.6172-5.7734-5.4219-3.0898 0.09375-5.5156 2.6836-5.4219 5.7734l0.21875 6.9961c0.089844 3.0273 2.5742 5.418 5.5859 5.418z"/>
  <path d="m416.59 218.64h0.17969c3.0898-0.09375 5.5156-2.6836 5.4219-5.7734l-0.21875-6.9961c-0.09375-3.0977-2.6992-5.5156-5.7695-5.4219-3.0898 0.09375-5.5156 2.6836-5.4219 5.7734l0.21875 6.9961c0.089844 3.0312 2.582 5.4219 5.5898 5.4219z"/>
  <path d="m319.08 233.19h0.17969c3.0898-0.09375 5.5156-2.6836 5.4219-5.7734l-0.21875-6.9961c-0.10156-3.0898-2.6836-5.668-5.7734-5.4219-3.0898 0.09375-5.5156 2.6836-5.4219 5.7734l0.21875 6.9961c0.09375 3.0273 2.5781 5.4219 5.5938 5.4219z"/>
  <path d="m422.82 246.24c0.51562 2.6836 2.8633 4.5547 5.4922 4.5547 0.35156 0 0.69922-0.035156 1.0547-0.10156 3.0391-0.58203 5.0273-3.5117 4.4531-6.5508l-1.3086-6.8711c-0.58203-3.0391-3.5156-5.0117-6.5508-4.4531-3.0391 0.58203-5.0273 3.5117-4.4531 6.5508z"/>
  <path d="m356.96 277.18c0.35156 0 0.69922-0.035156 1.0547-0.10156 3.0391-0.58203 5.0273-3.5156 4.4531-6.5508l-1.3086-6.875c-0.58203-3.0391-3.5117-5.0117-6.5508-4.4531-3.0391 0.58203-5.0273 3.5117-4.4531 6.5508l1.3086 6.875c0.51562 2.6875 2.8555 4.5547 5.4961 4.5547z"/>
  <path d="m398.7 286.2c0.0625 0 0.11719 0 0.17969-0.003907 3.0898-0.09375 5.5156-2.6836 5.4219-5.7695l-0.21875-7c-0.09375-3.0898-2.6719-5.5703-5.7695-5.4219-3.0898 0.09375-5.5156 2.6836-5.4219 5.7695l0.21875 7c0.09375 3.0352 2.582 5.4258 5.5898 5.4258z"/>
  <path d="m376.61 245.01c0.11719 0 0.23047 0 0.34766-0.011719l6.9883-0.42188c3.0859-0.18359 5.4375-2.8398 5.2539-5.9258-0.18359-3.0859-2.8633-5.4766-5.9297-5.2539l-6.9883 0.42187c-3.0859 0.18359-5.4375 2.8398-5.2539 5.9258 0.17969 2.9766 2.6484 5.2656 5.582 5.2656z"/>
  <path d="m276.46 218.64c0.11719 0 0.23047 0 0.33984-0.011719l6.9883-0.42188c3.0859-0.18359 5.4375-2.8398 5.2539-5.9258s-2.8711-5.4766-5.9258-5.2539l-6.9883 0.42188c-3.0859 0.18359-5.4375 2.8398-5.2539 5.9258 0.18359 2.9766 2.6484 5.2656 5.5859 5.2656z"/>
  <path d="m242.9 250.12c0.11719 0 0.23047 0 0.33984-0.011719l6.9883-0.42188c3.0859-0.18359 5.4375-2.8398 5.2539-5.9258-0.18359-3.0898-2.9062-5.4609-5.9258-5.2539l-6.9883 0.42188c-3.0859 0.18359-5.4375 2.8398-5.2539 5.9258 0.18359 2.9727 2.6484 5.2656 5.5859 5.2656z"/>
  <use x="70" y="644" xlink:href="#h"/>
  <use x="90.550781" y="644" xlink:href="#d"/>
  <use x="104.359375" y="644" xlink:href="#a"/>
  <use x="123.347656" y="644" xlink:href="#c"/>
  <use x="142.242188" y="644" xlink:href="#b"/>
  <use x="155.628906" y="644" xlink:href="#a"/>
  <use x="174.617188" y="644" xlink:href="#k"/>
  <use x="204.410156" y="644" xlink:href="#j"/>
  <use x="224.453125" y="644" xlink:href="#i"/>
  <use x="252.453125" y="644" xlink:href="#h"/>
  <use x="273" y="644" xlink:href="#d"/>
  <use x="286.808594" y="644" xlink:href="#a"/>
  <use x="305.796875" y="644" xlink:href="#c"/>
  <use x="324.695312" y="644" xlink:href="#b"/>
  <use x="338.078125" y="644" xlink:href="#f"/>
  <use x="347.675781" y="644" xlink:href="#u"/>
  <use x="365.929688" y="644" xlink:href="#a"/>
  <use x="394.664062" y="644" xlink:href="#t"/>
  <use x="422.53125" y="644" xlink:href="#c"/>
  <use x="441.421875" y="644" xlink:href="#g"/>
  <use x="461.359375" y="644" xlink:href="#f"/>
  <use x="470.953125" y="644" xlink:href="#c"/>
  <use x="70" y="672" xlink:href="#s"/>
  <use x="82.183594" y="672" xlink:href="#d"/>
  <use x="95.992188" y="672" xlink:href="#e"/>
  <use x="115.226562" y="672" xlink:href="#r"/>
  <use x="154.152344" y="672" xlink:href="#b"/>
  <use x="167.535156" y="672" xlink:href="#q"/>
  <use x="187.46875" y="672" xlink:href="#a"/>
  <use x="216.207031" y="672" xlink:href="#p"/>
  <use x="239.640625" y="672" xlink:href="#e"/>
  <use x="258.878906" y="672" xlink:href="#o"/>
  <use x="278.8125" y="672" xlink:href="#g"/>
  <use x="308.492188" y="672" xlink:href="#n"/>
  <use x="329.015625" y="672" xlink:href="#d"/>
  <use x="342.820312" y="672" xlink:href="#e"/>
  <use x="362.058594" y="672" xlink:href="#m"/>
  <use x="371.65625" y="672" xlink:href="#a"/>
  <use x="390.648438" y="672" xlink:href="#l"/>
  <use x="407.242188" y="672" xlink:href="#b"/>
 </g>
</svg>
